<mxfile host="65bd71144e">
    <diagram id="Hk6jfzbKpjD6w4GfvhcP" name="Page-1">
        <mxGraphModel dx="1056" dy="827" grid="1" gridSize="10" guides="1" tooltips="1" connect="1" arrows="1" fold="1" page="1" pageScale="1" pageWidth="827" pageHeight="1169" math="0" shadow="0">
            <root>
                <mxCell id="0"/>
                <mxCell id="1" parent="0"/>
                <mxCell id="3" value="" style="rounded=0;whiteSpace=wrap;html=1;" vertex="1" parent="1">
                    <mxGeometry x="20" y="20" width="820" height="570" as="geometry"/>
                </mxCell>
                <mxCell id="4" value="" style="rounded=0;whiteSpace=wrap;html=1;" vertex="1" parent="1">
                    <mxGeometry x="40" y="140" width="780" height="50" as="geometry"/>
                </mxCell>
                <mxCell id="5" value="LOGO" style="ellipse;whiteSpace=wrap;html=1;aspect=fixed;" vertex="1" parent="1">
                    <mxGeometry x="370" y="40" width="80" height="80" as="geometry"/>
                </mxCell>
                <mxCell id="6" value="Profil /login logout" style="rounded=0;whiteSpace=wrap;html=1;" vertex="1" parent="1">
                    <mxGeometry x="680" y="150" width="130" height="30" as="geometry"/>
                </mxCell>
                <mxCell id="7" value="CaffShop" style="rounded=0;whiteSpace=wrap;html=1;" vertex="1" parent="1">
                    <mxGeometry x="180" y="150" width="120" height="30" as="geometry"/>
                </mxCell>
                <mxCell id="8" value="Home" style="rounded=0;whiteSpace=wrap;html=1;fillColor=#f8cecc;strokeColor=#b85450;" vertex="1" parent="1">
                    <mxGeometry x="50" y="150" width="120" height="30" as="geometry"/>
                </mxCell>
                <mxCell id="10" value="admin" style="rounded=1;whiteSpace=wrap;html=1;" vertex="1" parent="1">
                    <mxGeometry x="430" y="150" width="106" height="30" as="geometry"/>
                </mxCell>
                <mxCell id="11" value="" style="rounded=0;whiteSpace=wrap;html=1;" vertex="1" parent="1">
                    <mxGeometry x="850" y="15" width="820" height="570" as="geometry"/>
                </mxCell>
                <mxCell id="12" value="" style="rounded=0;whiteSpace=wrap;html=1;" vertex="1" parent="1">
                    <mxGeometry x="870" y="135" width="780" height="50" as="geometry"/>
                </mxCell>
                <mxCell id="13" value="LOGO" style="ellipse;whiteSpace=wrap;html=1;aspect=fixed;" vertex="1" parent="1">
                    <mxGeometry x="1200" y="35" width="80" height="80" as="geometry"/>
                </mxCell>
                <mxCell id="14" value="Profil /login logout" style="rounded=0;whiteSpace=wrap;html=1;" vertex="1" parent="1">
                    <mxGeometry x="1510" y="145" width="130" height="30" as="geometry"/>
                </mxCell>
                <mxCell id="15" value="CaffShop" style="rounded=0;whiteSpace=wrap;html=1;fillColor=#f8cecc;strokeColor=#b85450;" vertex="1" parent="1">
                    <mxGeometry x="1010" y="145" width="120" height="30" as="geometry"/>
                </mxCell>
                <mxCell id="16" value="Home" style="rounded=0;whiteSpace=wrap;html=1;" vertex="1" parent="1">
                    <mxGeometry x="880" y="145" width="120" height="30" as="geometry"/>
                </mxCell>
                <mxCell id="19" value="" style="rounded=0;whiteSpace=wrap;html=1;" vertex="1" parent="1">
                    <mxGeometry x="870" y="210" width="210" height="360" as="geometry"/>
                </mxCell>
                <mxCell id="20" value="" style="whiteSpace=wrap;html=1;aspect=fixed;" vertex="1" parent="1">
                    <mxGeometry x="1144" y="230" width="80" height="80" as="geometry"/>
                </mxCell>
                <mxCell id="21" value="" style="whiteSpace=wrap;html=1;aspect=fixed;" vertex="1" parent="1">
                    <mxGeometry x="1250" y="230" width="80" height="80" as="geometry"/>
                </mxCell>
                <mxCell id="22" value="" style="whiteSpace=wrap;html=1;aspect=fixed;" vertex="1" parent="1">
                    <mxGeometry x="1360" y="230" width="80" height="80" as="geometry"/>
                </mxCell>
                <mxCell id="23" value="" style="whiteSpace=wrap;html=1;aspect=fixed;" vertex="1" parent="1">
                    <mxGeometry x="1470" y="230" width="80" height="80" as="geometry"/>
                </mxCell>
                <mxCell id="24" value="lapozÃ³" style="rounded=1;whiteSpace=wrap;html=1;" vertex="1" parent="1">
                    <mxGeometry x="1290" y="530" width="120" height="30" as="geometry"/>
                </mxCell>
                <mxCell id="25" value="Creator" style="rounded=0;whiteSpace=wrap;html=1;" vertex="1" parent="1">
                    <mxGeometry x="890" y="240" width="170" height="40" as="geometry"/>
                </mxCell>
                <mxCell id="26" value="CreationDate" style="rounded=0;whiteSpace=wrap;html=1;" vertex="1" parent="1">
                    <mxGeometry x="890" y="300" width="170" height="40" as="geometry"/>
                </mxCell>
                <mxCell id="27" value="Name" style="rounded=0;whiteSpace=wrap;html=1;" vertex="1" parent="1">
                    <mxGeometry x="890" y="360" width="170" height="40" as="geometry"/>
                </mxCell>
                <mxCell id="28" value="Upload" style="rounded=0;whiteSpace=wrap;html=1;" vertex="1" parent="1">
                    <mxGeometry x="310" y="150" width="110" height="30" as="geometry"/>
                </mxCell>
                <mxCell id="29" value="admin" style="rounded=1;whiteSpace=wrap;html=1;" vertex="1" parent="1">
                    <mxGeometry x="1264" y="145" width="106" height="30" as="geometry"/>
                </mxCell>
                <mxCell id="30" value="Upload" style="rounded=0;whiteSpace=wrap;html=1;" vertex="1" parent="1">
                    <mxGeometry x="1144" y="145" width="110" height="30" as="geometry"/>
                </mxCell>
                <mxCell id="31" value="" style="rounded=0;whiteSpace=wrap;html=1;" vertex="1" parent="1">
                    <mxGeometry x="20" y="610" width="820" height="570" as="geometry"/>
                </mxCell>
                <mxCell id="32" value="" style="rounded=0;whiteSpace=wrap;html=1;" vertex="1" parent="1">
                    <mxGeometry x="40" y="730" width="780" height="50" as="geometry"/>
                </mxCell>
                <mxCell id="33" value="LOGO" style="ellipse;whiteSpace=wrap;html=1;aspect=fixed;" vertex="1" parent="1">
                    <mxGeometry x="370" y="630" width="80" height="80" as="geometry"/>
                </mxCell>
                <mxCell id="34" value="Profil /login logout" style="rounded=0;whiteSpace=wrap;html=1;" vertex="1" parent="1">
                    <mxGeometry x="680" y="740" width="130" height="30" as="geometry"/>
                </mxCell>
                <mxCell id="35" value="CaffShop" style="rounded=0;whiteSpace=wrap;html=1;" vertex="1" parent="1">
                    <mxGeometry x="180" y="740" width="120" height="30" as="geometry"/>
                </mxCell>
                <mxCell id="36" value="Home" style="rounded=0;whiteSpace=wrap;html=1;" vertex="1" parent="1">
                    <mxGeometry x="50" y="740" width="120" height="30" as="geometry"/>
                </mxCell>
                <mxCell id="37" value="admin" style="rounded=1;whiteSpace=wrap;html=1;" vertex="1" parent="1">
                    <mxGeometry x="430" y="740" width="106" height="30" as="geometry"/>
                </mxCell>
                <mxCell id="38" value="Upload" style="rounded=0;whiteSpace=wrap;html=1;" vertex="1" parent="1">
                    <mxGeometry x="310" y="740" width="110" height="30" as="geometry"/>
                </mxCell>
                <mxCell id="39" value="" style="whiteSpace=wrap;html=1;aspect=fixed;" vertex="1" parent="1">
                    <mxGeometry x="870" y="600" width="290" height="290" as="geometry"/>
                </mxCell>
                <mxCell id="40" value="1st frame as preview" style="ellipse;whiteSpace=wrap;html=1;aspect=fixed;" vertex="1" parent="1">
                    <mxGeometry x="1045" y="670" width="80" height="80" as="geometry"/>
                </mxCell>
                <mxCell id="41" value="upload date&lt;br&gt;creatr&lt;br&gt;name" style="rounded=0;whiteSpace=wrap;html=1;" vertex="1" parent="1">
                    <mxGeometry x="1025" y="790" width="120" height="60" as="geometry"/>
                </mxCell>
                <mxCell id="42" value="/shop" style="shape=note;whiteSpace=wrap;html=1;backgroundOutline=1;darkOpacity=0.05;" vertex="1" parent="1">
                    <mxGeometry x="880" y="30" width="170" height="50" as="geometry"/>
                </mxCell>
                <mxCell id="43" value="/" style="shape=note;whiteSpace=wrap;html=1;backgroundOutline=1;darkOpacity=0.05;" vertex="1" parent="1">
                    <mxGeometry x="20" y="40" width="170" height="50" as="geometry"/>
                </mxCell>
                <mxCell id="44" value="/caff/{id}" style="shape=note;whiteSpace=wrap;html=1;backgroundOutline=1;darkOpacity=0.05;" vertex="1" parent="1">
                    <mxGeometry x="40" y="645" width="170" height="50" as="geometry"/>
                </mxCell>
                <mxCell id="46" value="" style="shape=flexArrow;endArrow=classic;html=1;exitX=0.5;exitY=1;exitDx=0;exitDy=0;" edge="1" parent="1" source="20" target="39">
                    <mxGeometry width="50" height="50" relative="1" as="geometry">
                        <mxPoint x="1160" y="500" as="sourcePoint"/>
                        <mxPoint x="1210" y="450" as="targetPoint"/>
                    </mxGeometry>
                </mxCell>
                <mxCell id="47" value="animation" style="whiteSpace=wrap;html=1;aspect=fixed;" vertex="1" parent="1">
                    <mxGeometry x="230" y="810" width="210" height="210" as="geometry"/>
                </mxCell>
                <mxCell id="48" value="Buy" style="rounded=1;whiteSpace=wrap;html=1;" vertex="1" parent="1">
                    <mxGeometry x="360" y="1040" width="80" height="60" as="geometry"/>
                </mxCell>
                <mxCell id="49" value="" style="rounded=0;whiteSpace=wrap;html=1;" vertex="1" parent="1">
                    <mxGeometry x="536" y="810" width="230" height="310" as="geometry"/>
                </mxCell>
                <mxCell id="50" value="Delete (admin, tulaj)" style="rounded=1;whiteSpace=wrap;html=1;" vertex="1" parent="1">
                    <mxGeometry x="230" y="1040" width="80" height="60" as="geometry"/>
                </mxCell>
                <mxCell id="51" value="comments&lt;br&gt;create&lt;br&gt;modify (tulaj)&lt;br&gt;delete (tulaj, admin)" style="rounded=1;whiteSpace=wrap;html=1;" vertex="1" parent="1">
                    <mxGeometry x="546" y="830" width="210" height="90" as="geometry"/>
                </mxCell>
                <mxCell id="52" value="" style="rounded=0;whiteSpace=wrap;html=1;" vertex="1" parent="1">
                    <mxGeometry x="1248" y="620" width="820" height="570" as="geometry"/>
                </mxCell>
                <mxCell id="53" value="" style="rounded=0;whiteSpace=wrap;html=1;" vertex="1" parent="1">
                    <mxGeometry x="1268" y="740" width="780" height="50" as="geometry"/>
                </mxCell>
                <mxCell id="54" value="LOGO" style="ellipse;whiteSpace=wrap;html=1;aspect=fixed;" vertex="1" parent="1">
                    <mxGeometry x="1598" y="640" width="80" height="80" as="geometry"/>
                </mxCell>
                <mxCell id="55" value="Profil /login logout" style="rounded=0;whiteSpace=wrap;html=1;" vertex="1" parent="1">
                    <mxGeometry x="1908" y="750" width="130" height="30" as="geometry"/>
                </mxCell>
                <mxCell id="56" value="CaffShop" style="rounded=0;whiteSpace=wrap;html=1;" vertex="1" parent="1">
                    <mxGeometry x="1408" y="750" width="120" height="30" as="geometry"/>
                </mxCell>
                <mxCell id="57" value="Home" style="rounded=0;whiteSpace=wrap;html=1;" vertex="1" parent="1">
                    <mxGeometry x="1278" y="750" width="120" height="30" as="geometry"/>
                </mxCell>
                <mxCell id="58" value="admin" style="rounded=1;whiteSpace=wrap;html=1;" vertex="1" parent="1">
                    <mxGeometry x="1658" y="750" width="106" height="30" as="geometry"/>
                </mxCell>
                <mxCell id="59" value="Upload" style="rounded=0;whiteSpace=wrap;html=1;fillColor=#f8cecc;strokeColor=#b85450;" vertex="1" parent="1">
                    <mxGeometry x="1538" y="750" width="110" height="30" as="geometry"/>
                </mxCell>
                <mxCell id="60" value="/Upload" style="shape=note;whiteSpace=wrap;html=1;backgroundOutline=1;darkOpacity=0.05;" vertex="1" parent="1">
                    <mxGeometry x="1248" y="640" width="170" height="50" as="geometry"/>
                </mxCell>
                <mxCell id="61" value="" style="shape=image;verticalLabelPosition=bottom;labelBackgroundColor=#ffffff;verticalAlign=top;aspect=fixed;imageAspect=0;image=data:image/png,iVBORw0KGgoAAAANSUhEUgAAAeMAAAEFCAYAAADQao+nAAAAAXNSR0IArs4c6QAAAARnQU1BAACxjwv8YQUAAAAJcEhZcwAADsMAAA7DAcdvqGQAACeESURBVHhe7d0PXFX14f/xd9/6jmab5nf5p6WzyJloM3TWTXt0M79Dq4H6EHNfYfgLxaJk4iIoHc6cZiXRxOHSQbGffGXTL7QUtlKWKX1LmYnMlqYpZWIZuK+J35zsl93f59x70HsvoFDiAX09e1zuOZ/zOZ97zrl03/dzzufgJV988YVHAADAMf9iPwMAAIdc4jHsaQAA4AB6xgAAOIwwBgDAYYQxAAAOI4wBAHAYYQwAgMMIYwAAHEYYAwDgMMIYAACHEcYAADjsggrj2qJEhfbLUIU974xKLew3QKGLKu358893HBK1+pBdcD7Ulmtpolth1r4nlqjWLtbxKq1+PEbhVnl4lsPvDQC0T+cpjFsQUIeKNMXUWbjNnkebqT9YrvzHkxXlHmxC27wv3sdgucbO0bpTKdoKJ3dpaVy8Mj+4Q7OX5WnxXd3sBce0Lj1aj70kxT2bpxfSBqizvQQAcBqnqS8mJ4+pYrnppd4Zr4UbanX93fdpnhWST6Zq+vQYDetUr/qTdt3WeHu9sqtClPDEfMWNdGnMOJe8cVy7SatK6jVizhKlRLo0IiZCfb0rAAD8EcYXjXpVZE7ShMx9GvF4kcpfK9DiWcmKs0IyOl4pyala/LtFGtPTrt4KdR8fNK271Pcau6DB4YPaZ576XnuVbx4A0CTC+CJRv22Jfpp7UCOeLNJzMWHqfKm94ByoP15nTwUx5QfsSQBA89p3GG/LODUQqXZLnmZOsgcIuSL14KIS7T1u1zubQ+XKTYvXKJd9fdSsH5uWp81NXR+t26W1i/yup1qvtbRctU2cvq3bVaKF0yN9g5P6uTQhrUAVdfX20iCtaLd+T2C7o6ZnaO2eJto9eVibc9M0wW4zzJ2ohRuqdcJefNoxrVuRpwPhqZo9rpdddna+/YuWK9zajgEKvytZS7cctpca9nV+16wyM1Omx9y+elOKNvnGCEzK81bLneQrd3JQGwC0Zx2iZ1z3RoamPLlLN8Zm6IW8PC2edr32mRCKerhIB85yjbN+W5ai7opX5u5umjgnTyvN+i+k3SFtylBshAn6g3ZFr8Na/XC0Hn0jRGPTlnnrLo7prI1Z8YrNrpR/HNabLwoTxqZp9XHfoKWVeRmaeFWppkycr412ndNa125UZJppI1q/MPVW5s3R2OOFmhkZraW77EqWk9VaPT3CrL9PvSbPt/fLpZqsaE3NqbIr2eq3a9vL0sCoW9W3pT1iE7Qzx87R5pBI/WyptR2LFNe1TJmT71Nmpb3FXV1KsvYlPszMhCnhWd/xTbp1oCZa2z4rwltt9Cxf+cpx13vnAQBBPOfFds8T3w3zXPf0dnu+CR8XeuJNnSfesuctby3yXGetN7XQ8+HndpntxKb5nv5mWfKf6uwSj6em8AFTf5Fnmz3vOWFed0SYp/8Djdf3fGaWjTZtzyj2HLWLPJ5azysrN3lqAuqe8Lz2mKln2n2zofwM7dYUp3q3K3BfW9eue+EWs9TP5wc8q6aauj9df2pbffv6Q3O8Amqaujs92dZ+ffcBz6qP7TL72P58U1DdM/l4vWfFplp7xvbZJs+j1r6Z7fPn2xa/12tgv38B7ykAoJEO0TOOmxyp3kE9uhB3tJKukdZW7rRLGqsvL1HuwV5KSoputL46hWvaNLf0cok2njpdfZVGx7jVLaBuiAYONfW0Twca6m0vbbbdbndHK86ePq1l7fq21/Qwf+QyS/1c2kvDRrmkkkrt9RZU67U1ZdLdiUr6fkBNUzdMY6aYuk0IuSKo7pn0jFCcO2jgVacBGuLd5OrT9xEDAL6yDhDGLg28vqkQ6aZu1lnPMwRDXW21+enWwO/65oN1u9ZqoFzv+Z+qPnlMe98oUm5WhmbGRytqrFtu7zXR02oPWmOEm2n30mYCrwXt+rZ3l+beZV9j9XvckV5ulu3TXu8f8jisvVtkwrzp+3YvD94Ge/4dc6xa5UiVNhflKfPJNMWON9vsjtBjgZsMADgHzlMYh6iLddvLyWYGN1kOVjVxrdVigiS4V+uvc+fAXuRXcbBEDw53adTDedp25GvqHRGv2WkZWjy9qZ5miEIusyfPplXtRmh2rn2NtdEjUcO62tWMziFfs6fOwnxr+b45/pvfqFQz454bOfBSssKtQWY5Zp1O1+iuKWma/eQiTb/VrgAAOGfOUxj3Ut/B5ml9pd5pZsDVgd3bzc9Ifb9Rb7NcewMGWdnqd+od00vrfUOvZv+qU+du1sjhMr3znm8+WO0HVg83QjeG+uYrVs7Ruk7xWvlaiZ57PFkpMZEadptLA672LW8Q0sl6xS3au983H6C+LmBAlqV17VYrpJfLu7zxI1y9vd88fF9uNu+savRalqPHg88VhGnMtHDp5WXK3naGL0QNTlYq//FSdYnPU/krWZqX7LsfedhtYeptVwEAnDvnKYy/qWERkQo5mKXMVU2cKj1YpLmLKhUSGaFhjZK1XvnFZaoLCvG9q5cpX6Ga6LZG8jYtxBWhuE7Vys5uYtT18Url5JT5veZhVVeZoOodql6dvDV8Tpoee6F1ivi0zoNdGqFdyl1V3igM9xZY2+WvFe3e6tboZtoNFKZhd5tULijQmuAvKnVlys/0H3bt0zs6TdNDq5Q7NV5LK4/Zpc34n2rvbWO9rr8m8KxDVZlWb7GnAQDnzKWPG/Z0mwoJDdN3ql7SstznlVdxRJ8dr9MltW9r3e9/q7mzl2trz2hlZyRo4DfsFSwfv6msonrd3q1MC/9wTN/udlL/c8CE2G8e1kPP/U3XJSzVM+N6quFs8fFdJcp99d808Se3ydvpvKyXht98XH985lkt3bBfl3+zs+prD2rf1t/pZ/fP0dqvx2vV8jhd+69W5U7qVPeGfvufL2rH/3ZT9385po/3lmnpw1k6cO312r3nMv0gPtK3fd+4Xr2/KFXub36rde92Upcr/2m2q1LrFs9S1r/crDsrKvXOkGgl32b9OatWtPv1frrp229r2TNLzDE6rn/rfJnqPjqo6r3lWvd/l2jFp7fqrv6+RL/6+l7666pc5Ra8oc+6ddNlRw759iu5TFebY1JR6deu5bKeGj76e/qsLF9Ln1umvNf363+O1unkP47pg62lKir9o/KfLNEXd0bohh6dVPd6vvJfevt02/+9XD/JPKhr++7R7ktHatqYAbrCbtp33BX4ehbv+1epIROm6/Zv22UAgMbsUdXnx+d1nr8VL/Ikjrndd/uPedw0+j5Pcs4mz3un7y86zXtrzAOeVdV1nm0rUz3RtzSsM8PzRPG+wNt/jEa3NtlOfLDJk/3QeM8tN/nW73/7JO9rfviZXaHB57WeN7NneCIaXufeVM+K7XWeD5u8deeE5z1rX0bf4tfmFk/N503cxtWqds1+/PcLnuT/8D9G4z2JTxd6ttXYFRrUbPHkpE6y9+sWT8RDizxrdp9o/lYji/c9WOxJvu+Hnpvs9n3bP94T+dAyz7ZT905tMcesoc4tnujUlWaZfYvV1EKP/6ZwaxMAfDWXWD/sXG5/rL/ANWmfnipbpolf4m8mAwDQEXSI+4wBALiQEcYAADiMMAYAwGGEMQAADmvfA7gAALgI0DMGAMBhhDEAAA4jjAEAcBhhDACAwwhjAAAcRhgDAOAwwhgAAIcRxgAAOIwwBgDAYYQxAAAOI4wBAHBYm/9t6kOHDunFF1/U/v377RKgbfTp00fjx49Xz5497RIA6BjaPIx//etfq3///hoyZIhdArSNiooKvfvuu3rooYfsEgDoGNr8NLXVIyaIcT5Yv2ecgQHQEXHNGAAAhxHGAAA4jDAGAMBhhDEAAA4jjAEAcBhhDACAwwhjAAAcRhgDAOAwwhgAAId1/DD+bKsyI7pqVMZW1dtFPjuUO6a/wpOKVWOXSKZu166aXHS6pDk1RZPVtWumWeNMmnqNL6f+rUyN6jpKmW8F7kVrttl5+1WY2F/9EwvNFM69w1qdMEChiyrteefUFiUqtF+GKuz5c6/97KvTarcs1xT3YHO8B2jKS4ftUj/HK7XwrgEaZY5VwKfHyV3KHTtY4cklqrWLJFPXaqeoiXbgqHYWxjUqjO9qQrDpR+ZbdrVT6rX11z/TulHrVZx6s0LsUi/zW3nCnmwz5+o1zBeK7FnrNLq0WClDA/aiQ9lftEDWf+uWTVAfu6y9qVhkPuDNh1FYov8HVDDfBxZBAMftWq7YyVmqvi1VL+Qt0rhudvkp9arITtfGkQUqTgsP/Az8vD4wnNGutc+e8Z0pWrF2jdYEPaKus5fbjr6Srmn77ldOcBBbQgYpae27qsyOUne76Jw7J69xVKU/n6Z3E3PacRDvV+ncGUotOUPv/O1sTVvWXzmZ7TeI/dVvmKMnXj5mz10sqrXu8WTNLGmiV7S/VHOnp2ntIXsexjFV5KVpwnLnvpRVrF+mvZ3i9dSCGI24LVJjbrvKXuJT9/IcTamK1/MpQUFsCQnX9DXbVZkVqUYZjnanfYZxl/5y3e6WO+jR71v2cluXuzJU2Y57YS3TRRGZlcqJbs97UaMdS/L1yZm+Zn8vSetLU3TzFfZ8uxahMZHS2llZ2njcLrooHNa2glLVNfU+Hq5Ufmld259N6lDqtfeNElUctWfPu2Oq3W/erKGh6n2pXRSk892LzGdgdLPL0XEwgAsXoV6anDZfI1SgBxeVcSoP7VS9jtbZk7jgdcwwPrpHxRkzNHZ4f9/15O+P0owlWxX4Bda+/pxx5iFYrfJhoab176r+k7K14zOrIOg1qvI10WzPxJVNDV/ar/x7Td2k4lPbeXRXsTKTxspl2rT2IzxihrK3tOxreEvXrX+viXpv2fXeyvQdvyYf/ZX656PammFNj9ICU7044QZ72WQVfuRrQp/XqOw3qZocEe5b1t+liXMLtcd7fPyZtoLrpRQHDvRq0ft6jvSM1Lw5bqlggTK3tDyOa7fkaeYkt8Ksa8rhbk1Iy9PmoIvPpwY3nTyszUuTNcplXad2acLjJTpw0lQIKB8sV+LyRm201tm2y3etPEa5ZnrjLLf3unlov0StPmRfH5+UZ5aU6TG3VW4eCUVnuKbejINFmhI+QGGTluudtjrjULdLaxclK8oe0BTqitSDS8tVax1Xf7Xlyk2Lt4+x2SZ3jGaWVPuWHTLb6d3/ph+jcqvs99Ctx8pM/dyYU8sWbqtW/kQzPbFAB3ytBThQYNVN1tojdoH1XuemKfYul68N6715vEh7z3J8Al6/bI5c3te33i/f8pYdBwbBdSQdMIxNAM50KfV1KWr2b7zXklf8+EqtnztK9/5yR9v1cv5epgVTp+n1funKz03SoKZOx4aOUVysVFpU1ng0cVWZCv/cQyk/GqUu1vxHhfrJ8FSVXRal9BzrmvgKxV21XnPuvleZ28+yFy1d9+1sRd1i6nWZoAV2vaRBh7THOvVluS7Ke/wCHr9LV4RZdPPsfC34QRf1G2eVZyjOlLlTV9j1HpHbvmSw9Zc3aOzyT3RTYoZ32WoTcJ8umaYxJmhPX2E+qtIUl0aZerckL/HVe2Kiumze41fn/L+vvcela567WrmzlmhzC8LjgPmAdE9eoupByXouL08rn01U391LFBuRpnUNH76n1OmVTPPFxxzNec/maXHyAO0tSNOPM8u0MfM+za12abYpX/nsfeq9JUuxcSbAggOlhVqyXX3HmfK8VI020wPjF5lpaz5Rw7per4nW9CzrXQ9TgrVN1nySS529a7ZQbZnmTp2jzX0e0MrnH9DATnb5OWXC5eFoPfpGiMamLfNu5+KYztqYFa/YbL+RxEdKNTMiXtm1tyrJuz/LNC+yszbvs6+Vd3Upybv/fo/cdI3pJoWMnK/n40PV+dZEU75ICTea+nennqo3MbSXxk42x6qySBurfM2dVqWNhZUKiYvR6K6+kopMt2JzajVwWoZ3/RfS7lBdwRxFPXymAYQKfP0b47XY+/rW+2UtbeFxQMfiaWNpaWmeI0eOtPCx25MzTh5rsxo9xuV4dtt1Vmev8XwQsN4hz+r7rXopnvWnyuy2Zq/3q7fek27aisrd7VfW9GN3bpRpL93XXrVZb6hpa6iZr/av1/g1PvhdgllvkGd+mX+9I55NTwzyqIfdnvV4Z7VnyYsfBNQ5Ur3ak2Dta+pZtrmF6276eY+gY2I/aoPmTz0OedbMMOs02s/mj9umvCWe8oC6RzzlmW7zulGenL/aZbtXeCZY6y+rDKgXuB0tfV/P/LB+385k29Nhnuu+u8izzZ73VBd64r8b5olYvN1zwi7yeLZ7njBl1z293Z43PvbVi191wC6wfbbF88SIMI972U67wOOpKXzAvEaYJ3rFPrvEcsK8doS3vP8DhZ4PP7eLjaPFM0x5hCf7dBPNqPWsmvrlt6thv+ILa+15P28tMtvwgGfVx/b8Wfj20T6On5l2R5vtGm3mP/MuPgea2FdT9srKTZ4av2NnHdfXHvO9p2/a5TV/sLbtPs+qat/8KQHrBXpvxSTPdTeZ/Q9Yp6ltMI6u9ySb4xh4bI2dyzzu74Z7nnjLnje2/WGl572gY/LeC+Ob3r5G7NefWuipsUt8WnYcmt7+M/wOwFEdZzT1DLevR6nuiohtmG4QoptuiTLPe7S/4fTpufLZHuWnxGmB0rW+8OwDlLrcGaWUHjv0X6/tsEssO1T2+x0a9FCEbrZL9O0Ixd0ZuBe64ia5xpnn9/b79Rib0MJ1u3QfZH6WqSz49PVl9nOQ/UVJun/JIC1Z3vKBWIPGxalfUN1+g9zmZ7H2n9qQLurTQ/rLa1u1/3O7zBKwHef5fW1wTbTmLXBr79J0ZVc236fYW1qgjYrR5LG97BJbJ5fuHGV6p1t3BvV0XJo4MtSetoRo4K3WcZEmxkQGDLjpPNitYarWex+0fnR367frHDtepfyH45WreK1cnaohbdIjbnCVRse41S1gsJI5rkOt47pPB+wd7dytlymt1Ctv2KelGzQzyKl+W4Yemr9LcUuyNPEau/BMOrv1o7gQHfh9WcDZjHc2FOnANYkaG24XGEPGxahv0DHpO+hW87Nce7/0yPWWHQd0LB1nNPXg7ubXzfb5Ue15vVC5SxYoNX6sxo5xyZ1QbC88l/6q36SM0YydUVrxvAmooPxrUohbo6f20I7CMhPBtrdKlf12hBIirXD08/c9KivKVfbCVE0eb/ZjuFvTXrKXnU0L1u0zLl0Z42q04O5rFX5vqnL/vEdH/cPQ34eFWvCz13V7bobi/DPkrOpV83ax8pdka06S2Y7xoxQeYV1h9mOOSdziJN2wcZrCb3RpWkahtn7URPCdt/c1UO/oNM0Lr9LSx37b7Kniuo93mZ8FmvI969pd4CPWe7m1Kuga4gD1DfpgD7nC9xvc8HyK+VC1SuqOt/4EY+u361zap+yHozV3d4QWP5+qYa06r/0lnTymvW8UKTcrQzPjoxU11nw2zLIurJ4Wcut9WjwxVJvTRynMnaiFRZU60NyhPV6pzJ+ZA5WQp9nuRjcHNSNEw+6JUcjBIm20Dr/lZKXW5FRryLQfaqB/SJ6s14G/lSg/K0tzp5vtHR+pcO/1+a+oBccBHUvHu2b8YbFmuK6Va+ZvtOPvV6rPDxKUkpqhX82zelDnWg/dNGiQerz9V5XtbPnflLr5riQNevu/VPa2NVevsj/l6JPYOI3xC7n9L81QeF+XZizboU++0UcRU1KU8vSvND/SrnAGLV73ikHmM6ZSH5StUMJ39iv7Xpeudc1Q8Yf28lN2KNu6Hj4iQ0+05hYr66+fjblJN9y7QMX7P1WPQXFK+mm6crIT7Aqn9blrvtb8dbfWzDHdtT+ka9TAmzT2l35/Ne28vq9BLg1V3FPpGlKVpZ/mNny6NqFfjH3trqlHtPra1c47x7arm74/OMyE0k69uSOoF9oWDpboweEujXo4T9uOfE29I+I1Oy1Di6e77Aq2S3tp9IIiVb5mAnaktGZ+jO5wRStzW3AiH9O6dKtX/4CeSm7iPt0zCY9U0jXVWr3J9/tSv8UE7vEITb7b7wyFFfTjb9UdP16kNQf/qc6DY5SSMkcvPB5tV/iSWnoc0KF0uDDeuipV+VekaH3Zei2Zl6Sk2CjfPcg97ArnVE+5HspX/mwpd9I0ZbZwpLO+F6WEO03AvbLV/F9artJf6vTALa+tKnwsX11S16u8dInmz0hSXKR1BqCfecWzaf26Xcz2JGWuVuXu1Uq6Il+T5xb6nQav19aMRzSnPkX5ma374yU1r/xKC16/RTnry7U6M11J909QhHkvbr6+mVMIId3ljp2vnDfLVZ55i8p+Eads+6+qnd/3tQmhMZqXEqq9mfOVX9W4GxXSxXzI7pE6D3Vp2G1NPUJbN+DpHHF2uzpr2AMm8M13r9XJpge6pW3/iErFyjla1yleK18r0XOPJyslJtK7jwOutisECbnGpbjHl6m8rEizh+7S0qlLVOF35uNAUapmlrj01PPJGtKqJDYuDdPoKWE6kFNi2qzX5tICyW/glqX25WVausu0/8cyFS5KVUpCtEaY7R0S+tXekdYeB3QMHSyMa3Ro3yemm9Vf3QOuU+5XWWFbnc4M0c2pOVoRa53uvbeJvx3dlD5yR0fok+fLVFparOwe0zT6dr//22sO6V1rN673O/VuqSrT6hJ7ujmtWTf4lHT3CI25yzzvO6SGy1X1WzL0yEIp/dnUs14n/suHgRe5Dn34F/Ozn/p8xzfvU6+yl//Tnm5OF/X7wRhF6RMdOmx9wXHifW1sYEKGUkIrNXdhmWRd1vMz8LZo9VaBVqw5Dz3AVvgy27W5urm65TrQ6uuYIRqSskyL765V7uRJWtio93muHFa19SWpd6h6+V+DPWmNYC63Z2zBlxo6m+AcZXqNx2tV23DL3cEizZ1VrmFPpp/9OnFVdZPX3fu6ozXkeIFeWV+qlwpCFHePK+D/yQPV1nZdr94B35LrtfEVE9xfWiuOAzqUDhbG3TXo9gipJF2pvyhU6etlKvtzvuaMmaEd32nL05l9FJW9Rjk/+lALIqJaFMh97opT3CdrlZFVHDhwy9J9kNw/kIrnpmpBUanKzH6Umm+7Y2fuUJ+znaZuxbpbfxmuiSm5KraOk11vwQopYmqUvFevPypW0n2Z2hE7UTf/o9xbx/+x5+/eZow+6jNO+mT5r5T7Z7OsKF+lH0k3DP2xeihTP0tqeA3zxSPereL/HWWvZ/uoUNOGT1Omvb3eenMXqLhHkqJut3rRTr2vQUxvJ+GpB9S3LE+5W+yyBjfep18mhGpjepSiHs7T2jfKtdl6lBRoYVqMlm6z651vrdquXiZATBzkmR7bBlOnqEDrGsL3mlCNMEGRu2y5Npr1VxeUtnzg16W9NObZIj018qByJ0UHBPI7udEKcyX7/ZnNY2ZbXQp1zdHGU3/Q4rDWJg5W2Ni8M9zedZUGu8OlLQv00yeLvNu4eUOBHhufqm29Ak/P1r6UKFdihlZb++g9Fsv1WGa5QkwPcoTVKa2vVOZU8/r9ojWu50FfHb9HxcGG7b9KffuZeN2wTNlFZtmG5Vrrf8tunyhNvrte67KWaV3QwC3LwKHRJpzzNHdGw/tSoqXxEXqpzjeQ78tp+XFAx9LhTlP3ic3R+nmj9OmaaZo4ZqxmLN+hfvNWKGm4XaHN9NGEzHyl324C+ccTzx7I33IrInaHtr41qPHALdNW3LL1mv+DT1WYMFFjTejkVPTT/PwkuZoZ6Xxay9ftc2ucer6Xo1RznMaOuV/pq44qIrtS+f/Hui58VKVZqSo0HVKtTDXLrTqBj+L3vc0Y3TVh3molfW+rUu8dq/sz90imBxtye6rW5ibpyopnNNnUv//RtaqPXa2MSUHXnb/VT+5h5kNrobW9pu2Zv9JfvpOiTW/Ml9vuCTv3vgYKCU/UU9ObGsFm9QB/p+JnY9Rr5zLNjI9XbHyiZuaUqqZfosaE2dXOu9Zs11WaOC9Lcf22KzMxXlOyqhTS0LvqGa15WTEauD1LU8z6mXtCAnp5Z2UCeeKzeZoeZgJ5akwT12cbq28UvP9UfXMDDI3eP1qilclu1b00x2xjvB5cVqmB836rlNsCt7TzALeG1W/SQrOPsVa97C3qm1ygsjlu7z7tzU/XUuse4T0F9vEKfGT7nW4fklSg2SPrtHqWWTZrk44GjIz+pkZEROhAVZUGBg/cMkJuS1XxkzHq/PYS7+tMmVWio3EFWhwbNPK9lVp6HNCxXGLd32RPt4lHH31Us2bNsufOpxoVxt+gaQPW60hqQL8UF7Ann3xSTz/9tD0HXMysv8Dl1mP9ClSVFtRtR7vT8UZTt9h+7X9JGhR8GwkAXBSqtbfM9KS78BnYEVy4Yfx2udaqh8bcEnyKGAAuAn8r1zqFaPRQx66hoBUuqDCuKclUdkmZykqyNfm+OfrkRxmKG2ovBIALXG1JhpaWlHsHrcVOzVLNyPma9n17Idq1CyqMQy7/VPmPjNXYR/J1IjJHa1t53ywAdGQhneq1Ij1esekrVX/3fBU/G6lu9jK0bxfwAC5cjBjABaAjuoAHcAEA0DEQxgAAOIwwBgDAYW0exn369FFFRYU9B7Qd6/fM+n0DgI6mzQdwHTp0SC+++KL272/5P0EIfBlWEI8fP149e579374CgPakzcMYAACcGdeMAQBwGGEMAIDDCGMAABxGGAMA4DDCGAAAhxHGAAA4jDAGAMBhhDEAAA4jjAEAcBhhDACAwwhjAAAcRhgDAOAwwhgAAIcRxgAAOIwwBgDAYYQxAAAOI4wBAHAYYQwAgMMIYwAAHEYYAwDgMMIYAACHEcYAADiMMAYAwGGEMQAADiOMAQBwGGEMAIDDCGMAABxGGAMA4DDCGAAAh13iMezpNlWwQ8p6U9r+kfT/vrALcc79q/l6NfjbUvJwKWaQXQgAaNfOSxg/8rKUXynVfGYXoM11v0KKC5eeudsuAAC0W21+mtrqERPE5591vK3jbh1/AED71uZhbJ2aJoidYR136/gDANq3Ng9j6xoxnMPxB4D2r83DmMFazuL4A0D71+ZhDAAAzowwBgDAYYQxAAAOI4wBAHAYYQwAgMMIYwAAHEYYAwDgMMIYAACHEcYAADiMMAYAwGGEMQAADiOM/Y2XPAukV4fb8w7JTfZtR649DwC4sHWYMH413QSUeaTY803ZaQLsyBR7BgCADoKeMQAADiOMAQBwGGEMAIDDLvgwbriOfN0tUkWab2CU9fjHbOmPo+1KZ3ONtPJB087jfuunm/YmmHbtKqc0UfdIivRMf3u5n+sGmW1INm39wq77c+nNMdLX7eUAgIvDxdEzDjGhd4909TGpoNI89kiffk2653bpVfM4IxOiO6dJMSZkT3xir/836X2zaHC4CWQr6H01vXJNQMdcLX38oa/ui/uly7tKKeODBp+Zdv9oyu75lmnrA7tutRQ2VBpv6gMALh4XRRhfaYL041dNGD8nxRaaxwoz/XtfoI68zYSnr1qTck3vOewyacM6v/XNugNMT/b5WtN2qJQ9xK5sOSplFpjlL/jqRudISw+a8k6+8G9wqt1Sv7rmeUiJ+aJgygEAF4+Lo2d8RHridXu6wbumJ/qxef6G9EPTO21SXxPW3cyzqZcQvL6RsNUEp3kePsg3b0n4rfSIadvfI6ZHbbnaastiXq+5dt//iwnov9szAICLwkURxp+aMN5gT/v7+B++5543+J4b6S5ZZ4zfN+Fo9aIbedObp7rym75ZLxO0KZFm0U+kqtnSP34uefx7zhbzemdq9x9f2BMAgItChwnjE5/bE80Zbnqe9mRrnThuT3xV1vVlE8LP3CqFfd20a74E/Gmn9Px+e3mws+0TAOCi0GHCeNcx8+NyaWRwL9M2spfpoZrn9w/55v1ZPddGo56N4Vb31PRCd1X65hup8Z7h1nWmt9vU+g1fAA5ZlYwUM99wfbnrImnAc1J0ofSEvfwUE/4nzNPVzZwe78o1YwC4qHSYMF76vi/A7rlDigkOMdMjzR5gnk1Pc0O5ryhAN9Nb9buua7nu301bJoytEdJL7bJG9kqbreu3JnFzmxh1nXuz7wtAhen9WsKu8D0fsucbPNPHnmhgwn+n2ZnLrduggm55Gjzat10AgIvHJR7Dnm4Tl6TbE+dA7k+kqT3MhAndXSZEd9WanDRBGWbC9krztWL7m9KQP/nqNrDuM77OOg1tetXvm3DdbqatW43uMQF5uWnn+d9LCQ0Drqx/KML0vDeYNv7dtOVlnXr+D1+P99BBs8y8psz04L6mzLS5q8L0gF/0VR05UXrVhP6J/zX1zGtZg7sGm/W7mtfp+Y2guuOkPw71bcP2KrPMbNeVZj9Gmv1730yHdTbbZo5dgq/6V2LdwwwAaL861ACuhF9JSaZXecgEWJjpVY4Pl4ZZo5JN7/X5ksZB3ODEIRPib5lQvNb0qs0643ubMhOqmf5B3ByzfICp96IJ/ytN8Fvrx9xovgT805S9ejpcLRtWmzZNsJ6wbmOy6lm9cTN/zx7fcn8bXpKiXzchbNoZ3M/X7vBvmjbNPrxZb1cCAFwUOlTP+MuwesZXm0Ds+oJdcBGiZwwA7VuH6hkDAHAhIowBAHAYYQwAgMMIYwAAHHbBD+ACA7gAoL2jZwwAgMMIYwAAHEYYAwDgMMIYAACHtXkY/ytx7yiOPwC0f23+UT342/YEHMHxB4D2r83DOHm41N3+pwVxflnH3Tr+AID2rc3D2PqXi+LCCeTzzTre1nH3/stRAIB2rc3/6EeDgh1S1pvS9o+k//eFXYhzzrpGbJ2atnrEBDEAdAznLYwBAEDTGGsLAIDDCGMAABxGGAMA4DDCGAAAhxHGAAA4jDAGAMBhhDEAAA4jjAEAcBhhDACAwwhjAAAcRhgDAOAwwhgAAIcRxgAAOIwwBgDAYYQxAAAOI4wBAHAYYQwAgMMIYwAAHEYYAwDgMMIYAACHEcYAADiMMAYAwGGEMQAADiOMAQBwGGEMAIDDCGMAABxGGAMA4DDCGAAAhxHGAAA4jDAGAMBhhDEAAA4jjAEAcBhhDACAwwhjAAAcRhgDAOAwwhgAAIcRxgAAOIwwBgDAYYQxAAAOI4wBAHAYYQwAgMMIYwAAHEYYAwDgMMIYAACHEcYAADiMMAYAwGGEMQAADiOMAQBwGGEMAIDDCGMAABxGGAMA4DDCGAAAhxHGAAA4jDAGAMBhhDEAAA4jjAEAcBhhDACAwwhjAAAcRhgDAOAwwhgAAIcRxgAAOIwwBgDAYYQxAAAOI4wBAHAYYQwAgMMIYwAAHEYYAwDgMMIYAACHEcYAADiMMAYAwGGEMQAADiOMAQBwGGEMAIDDCGMAABxGGAMA4DDCGAAAhxHGAAA4jDAGAMBhhDEAAA4jjAEAcBhhDACAwwhjAAAcRhgDAOAwwhgAAIcRxgAAOIwwBgDAYYQxAAAOI4wBAHAYYQwAgMMIYwAAHEYYAwDgMMIYAACHEcYAADiMMAYAwGGEMQAADiOMAQBwGGEMAIDDCGMAABxGGAMA4DDCGAAAhxHGAAA4Svr/1geVIy1jjsgAAAAASUVORK5CYII=;" vertex="1" parent="1">
                    <mxGeometry x="1268" y="810" width="483" height="261" as="geometry"/>
                </mxCell>
                <mxCell id="62" value="Name" style="rounded=0;whiteSpace=wrap;html=1;" vertex="1" parent="1">
                    <mxGeometry x="1470" y="935" width="120" height="60" as="geometry"/>
                </mxCell>
                <mxCell id="63" value="" style="rounded=0;whiteSpace=wrap;html=1;" vertex="1" parent="1">
                    <mxGeometry x="20" y="1200" width="820" height="570" as="geometry"/>
                </mxCell>
                <mxCell id="64" value="" style="rounded=0;whiteSpace=wrap;html=1;" vertex="1" parent="1">
                    <mxGeometry x="40" y="1320" width="780" height="50" as="geometry"/>
                </mxCell>
                <mxCell id="65" value="LOGO" style="ellipse;whiteSpace=wrap;html=1;aspect=fixed;" vertex="1" parent="1">
                    <mxGeometry x="370" y="1220" width="80" height="80" as="geometry"/>
                </mxCell>
                <mxCell id="66" value="Profil /login logout" style="rounded=0;whiteSpace=wrap;html=1;" vertex="1" parent="1">
                    <mxGeometry x="680" y="1330" width="130" height="30" as="geometry"/>
                </mxCell>
                <mxCell id="67" value="CaffShop" style="rounded=0;whiteSpace=wrap;html=1;" vertex="1" parent="1">
                    <mxGeometry x="180" y="1330" width="120" height="30" as="geometry"/>
                </mxCell>
                <mxCell id="68" value="Home" style="rounded=0;whiteSpace=wrap;html=1;" vertex="1" parent="1">
                    <mxGeometry x="50" y="1330" width="120" height="30" as="geometry"/>
                </mxCell>
                <mxCell id="69" value="admin" style="rounded=1;whiteSpace=wrap;html=1;fillColor=#f8cecc;strokeColor=#b85450;" vertex="1" parent="1">
                    <mxGeometry x="430" y="1330" width="106" height="30" as="geometry"/>
                </mxCell>
                <mxCell id="70" value="Upload" style="rounded=0;whiteSpace=wrap;html=1;" vertex="1" parent="1">
                    <mxGeometry x="310" y="1330" width="110" height="30" as="geometry"/>
                </mxCell>
                <mxCell id="71" value="/admin" style="shape=note;whiteSpace=wrap;html=1;backgroundOutline=1;darkOpacity=0.05;" vertex="1" parent="1">
                    <mxGeometry x="20" y="1220" width="170" height="50" as="geometry"/>
                </mxCell>
                <mxCell id="73" value="" style="shape=image;verticalLabelPosition=bottom;labelBackgroundColor=#ffffff;verticalAlign=top;aspect=fixed;imageAspect=0;image=data:image/png,iVBORw0KGgoAAAANSUhEUgAAA9AAAAFTCAYAAADRFeS3AAAAAXNSR0IArs4c6QAAAARnQU1BAACxjwv8YQUAAAAJcEhZcwAADsMAAA7DAcdvqGQAAH1QSURBVHhe7f0LWFTXvQd+f9GOlwElKqSg9RLUIAQ1Xkq0pISGaDGpmEfTE+wJ/g3GS1RelQZNCTlIg7ZeismBk6pNiK/kH7Gv5ImkUaIhoZxQzFTjJUakGiJSgQiCII7CHOBda2ajwzDAZhgUne/neQZmr9nMDGv2/u3123utNU43b95sAhERERERERG1y6muro4JNBEREREREVEHnOrr65lAExEREREREXWgl/KbiIiIiIiIiNrhZDAYeAWaiIiIiIiIqAO8Ak1ERERERESkgtP//d//8Qo0ERERERERUQd4BZqIiIiIiIhIBaeGhgZegSYiIiIiIiLqAK9AExEREREREang1NjYyCvQRERERERERB3gFWgiIiIiIiIiFZhAExEREREREanABJqIiIiIiIhIBacmQblPRERERERERG3gFWgiIiIiIiIiFXrcFeiq6muoqKzG9Rs3wYvjHXNycoJz/35wG+yKQa4DlFLbsf6JqLPsGYcYg4ios9gWIkdn6z5Q++nnqPnwE9z89iya6g1KqWNy6qNBv0fGYeDcZ+DyyyeVUut6VAJ9qawC167r4TrAGb1791ZKqSMNDQ2ovnYdA5y1GObhppR2HuufiGxljzjEGEREtmJbiBxdZ/eBK2/txI1jJzHopRegfWwynPr2VR5xTE11ddB/9TWq3nkf/adMxJBVS5RHWusxXbjl2T4ZsAY/MJABq5Nkfcl6k/Un69EWrH8i6oquxiHGICLqCraFyNF1Zh+QV55l8jzsL4lwDpzu8MmzJOtA1oWsE1k3so7a0mMSaNlVRp7tI9vJ+pP1aAvWPxHZg61xiDGIiOyBbSFydGr2AdltW155ZuLcmqwTWTeyjtrSYxJoOc6EZ/u6RtafrEdbsP6JyB5sjUOMQURkD2wLkaNTsw/IMc+y2zZZJ+tG1lFbekwCzUka7MPWemT9E5G92BJPGIOIyF7YFiJH19G2LCcM49Xntsm6aW9SNX6NFREREREREZEKTKCJiIiIiIiIVGACTURERERERKQCE2giIiIiIiIiFZhAExEREREREanABJqIiIiIiIhIBSbQRERERERERCowgSYiIiIiIiJSgQk0ERERERERkQpMoImIiIiIiIhUYAJNREREREREpAITaCIiIiIiIrqHncC//Wfiu6QTynL3YQJNPUwBUl9ahoXvFyjLdtJYiPRXI7E4MRflShERkTXlWZux8KXNyKpQCuykWrcDi1+ORdpZg1Jyj6vIRoKI1wn2rygkrYhE9N4C3Cc1ReTg2La7L13OwPcyYfWfi0v5Sll7rmbignH91Si9rJTdo5hAK/Rn0xH3chrUfP50DzIY2BAjoruq/qZeuWcnjQaUn8lGWtIGrFohGqeygSpui38bi007D+LIJTu/3p0i4vU9+s6JBBXJonLyKfWMstzjGXBsp4wvkT3rPd/Btl3++0qMFcl6tVLWnvN7o0zr2/ukQU+krcfNT75EvbLYlqqPdqFBuX+vYwJdXYis7bFYtfUwiphh3b/6eiPsj0n4S1QA3JUiIqI7yT1wDf7y5wSEjdMoJV1QdRwpMVGI2X0amsnzsW5TIt5+03R7KzoC0x/8Dhkb1yF6ey5KGpW/uVe4BWDd/yRhy/PesENNEVFXVevwmc4LPr5ATt7xnnNB4k637TQaaM4cRl6ZstwWUV8Z2Y5zGtBp5GDgrxmovKoUWFP/JWp3VaLXz8RGdB9w4AS6DFmborD4t5uRdmE4JngpxURERD3Z5WwkxKSgaOpKvLVxJeYFeGGoixba5puHFwKfXYmNSa8hRJ+GuDf243yd8rdERJ1UkncY+V7+iAgJAPKykafmEuz9yOCKBx4sQ8bfC5UC60ryDuBUXy+MeVApuM85PROKPtoT0KefQVvna/VfZKAeT6Kvv1Jwj3PgBLoaJaUemP7ia6IBshRPjVCKiYiIeqq6AqRuSUN5wEqse84b2vaO4r08ELw6DvM0B5H0IccTE5EtynAqrwxjHvOD+zh/BLsUIO90jfKYo/FDcKAH9If3I6etkwiNhcjJLMPQp8Zj6D0+zle1/o/DOdwFTakZqLTWj7vhDKrePgGn8FC4DFDKLDXUourTRFx4YS6+M46T/hW+e2Etij89j5vKKuZu/CsTxWvDbq37/foPUHmto07k9uPACbQ3wt9ci4iA4e03QKhzaouRs3sboldHmsZ+rFiLTXtPo9rKKSn9hVykbF2LxXK9lyIRk3QQ+bXWmnim8URyohr9hWxsj4sy/s3i1ZuRftbURca8fOGK9dieVWwxhq4CWRstx6Lcfl5UnEZa83t5OQoxO+/Bbo9EZFR+cj8SE27HluVxKci6YKU7XWMFTn2UjBglXsmYkqIrs5pomiYWS0N+Yw1O7d2mjDkWcas5VliUL9+UjlNVpr+95UyaeKzl5GS3n1ePoqyU2+/lt9tuxTdzJV/sQRZmIPI3InlWyqq/Scem3yp/F5uCI7npWC6fUz7Yyw0hv54BQ9ZhHKs1rn5bJ+K1sU6bY6yIkQm7dSj5P+VBc7f+R/P/R9bHfhHf5QoW/6d4v60/G7PYfIsd4rWs49xUbHpV+T+M20Yyci4pj0vW1nl1G1JyLY8pdtomiG5pve2t2pqu7De3WbadVm1NRY7lPtS8H16W2+BmLH9ZrLsx27aJts7lIuOSNwKnuol44oWp07XIP/QVSpSHLd39tp1ZmYhxWTvXm/5/Y101xyHbjZw+Az7ivWe20Y+7Om8/Mmu9EfJzr7aHoIgYlm4+d4WIvXFJ++/p+DB49kL00n+O2i8qlZLb6o9m4GbpCPSb6Ws98WwoQ1lsGCpf/xxNjy3EwKQEuCatRL+HylD/+nKUJJ1okUTfPJGM0hcSUX/DH9o/yXWj0G/Il6haJMqUdbobU0eyIxG0/nsDUs9oMO3XSxEVuRIRj7vi/OFk/JfFbKp6Edx/l5CKvJvjEbZkpVg3HMGuXyMxfjeOKutYMlz8DEnvFGDUMxGIXDIPE/oV4+Otycj8JhuJW3LhPFOUR0Yg7BE9juzZjO156s6QyudNSNgPTF8g/l6858AhKNelIu69HjTOh4jUEbElOukzVI94GovE/hy1JBQ+eh1SNyW3nFVbJM9ZW+KR+GkZ3ILCjPEq8tfeuPrhBmzKbGuAWzWOfpCIdPhjkYhbETM8jLEi4QMdjn2QgHev+GG+jGcvBsD9wmEkbkzHeVUn4uTzbkTyueEIfVHEThnfehWI+LYZLd9KGY7llMHn2RkYoxy9y7M345W3z2LogteM4583RgzHP/5/h6H38oBo7pqM9sZUnMaZ75VlI/XxWiaKMaJOSwc/gXBZp8vmwacqA3F/OtBGI9qAoswd2KH8P8ue84PzhYPY9N+HcSorGQlfahHS/H/Wyc9GJP0qu4TaHK+Nn/c6sZ4Oet9Q07YhjjvzRutRcs1snTct1wlDsOcV5L23Ab8TDXLLJLr7tglyNOf3rUec2Ma0Ih7JbTvqxacw8upFlJhlDs1tp5MIMO2LYvucflOHlIT1SGvVq9iAk3uS8I+HIvD2n7djV0yQTeOE87/KFvuDPya6mpbHTA6A9tJB5FjpxdyT2naoOY7UhB04I44Fy5atNMYhnBVxaMvhNpN/VVz9ERqkRUlmrpV9uQx5hwqgmR6E6Up9WZJ1FP26+P8uuSLwN7KOxHubO9743hJj5EkPZcV7zYMhGPAffdCwNxNXW8wUVoYrez4H5i3E4OFKkYXaA3/E9SwX9N2ZhociQ+H+mD/cHgvBsDd2w/11XzSl/h5Xmmd5rj+BirgMNP18JdzfjILnz+W6T8Iz8m14LBqDJmW17sYEmuzKefJSbDWOyfPDhIl+CJy/BosmiyZGlg75zYGmrgDpO0VAHhuGjTEiuPrLdf0RLBqAW58dYaWBYlKk0+OpmKUIkev7z0DkK/MwBoVIe+sARq5Yg3Dja/ojZNkyhLgYcEp3ts3nMleku4jpMa8hzOw9L/PXwJCX2/qKDRH1bL08MC92E+IXBGGa2J+NsWLFLLgbCpFz/HYGXf5FClLP9UdwZAying0w7vsTAuYgauMaTG8zchxH/gPLEP+8af3A59ciSjSk9Nkp2H7pacQum2F6zQCRkL/gDVTl4ugF5U/bdVw0LsMR3/z38j2vnoOhouGR8aVZK7XqLE5eHo6JYwealuuOI31vMXwWRCJ8oodx/LO71wyEPq4FegN9TGsZ62SkF1By2fwMgsp4XZGNHXsKRaN+JeJXzUGgfH8TAzBvVQLWTRWNQWW1loqRpw+6VR/TQpZi7XPiDRSmIzFzBKKiw0zPI//PJTOgNZzGP86oida2x+vzH242fd5RZtuG8bizFmHjTOsYt4kzluuY/teN873E57wDGedM697WXdsEOZYC5GWJxNBfJM8h/sZtyRiPfr8GwYOVVZS2kyFgJf7wyu19MSwmDmFeNcj8WGexPxbjvMd8sX/cOpXWeSLG/D3XAJ/HxuNWPjh2EgJd9Mj5p0UG3cPadvj6a2BBzK36lHFo3bMeQBvJv3oa+Dw1C0Nrs/HZ1y3fieFMNjIueSA0ZJL1q89KHV0dJerILPZOCxbxf4v4rF0Kkfq+ulm+e54+GPxMKJxOf4BrR29fB27Mz8CNf7igX+jj6KeUtXQRNfvOAMEiwX7URSm7beDTC9FXW4ubOabvdm785nPUlYrneykUA8VxzpzzU6G3j3vdjAk02ZGbCFCT4Npiq9JitLecoa0U5c29Ov6lQ1atFsFzg+BusQW6yrN2yv1W/P0xpbnPouQ2DhPlBA0P/gLBvmYP9PKC70Tx+/tidWcZ/Z9GcIuJHrTwGS8aOiKEXVXXpiOinmJcEGaPMg8UwqhxmCB+Ff1wxbSMChyTianvHISaxw5JxI/gmcOVBUvDEegvGmC3aDBmnJ/x3pTggBbxzHWsH0aKZl7JD2qCyHDMmnm7S7bRMG9MEG0J/TWzv/+hDEUYgaHN7eHvC3DMMAlPTFYSaoW2n3imYZ63G7xWqYvX5cdzcR7emDfb4v0JY34xQ/yP1k2fPqnF+u7jxhuvfrk/EQQf8weMV8dFgnupo2ltFbbE60ZTcqKdsQzhlp/3LWU4ktXGNiG4/0IkLBo9so5afiVNd20T5Fhc4S636zOnccr8RJDcfpRtyPBNrmg7uYlY4ddyX+zlhik/FTHrm0IRH1qa6iv3Z9vpv87FEYM3pvuZxxgvTH1cniTKxjHzyQl7Wttu+AyEWOzLQ33Hi7rTQ39dKbCVx2PiuQ048nGu2XupQV6mvFo/A4HDlCILps/Qeh1B642QEPF5ncnF0Xu0K3cvn1D0/1k96j/6XDnJUY/KTzLQ5PcbuPgYC6yoFEk24DTJt9Uxxqi3B3o/Kn7/6yLkx6YvuSh++qPPaPmghd594KTc7W6WHx9R1zTWoOhkNtL3pCIxIRbRr0YhZk/LU33ll0vFTz+MtTZxWy9Nm2NGxowwb6RIP4JWnqxy6d/qbzSyoFbd9wO2fl4Rx1xlC7UY5S0v2BDRPcBwuRA5B9KQunMbomNisWrFNmQpj5lcQXmxSIoeHm09yRRxyLrRGNkieROxRms65DtrLf5GiWV6vZpkqfXzAgNNDerSitvjFhvF/yaeVaMcuavLLsLwoCc8+5qWTQwoLakQSbTZ+2kUiXehBiOHWVyJUhGvK34QFfXgOIyxVlFtxmsvjPRU7jbr299Y1679f2RabtZcTzfVDZixKV5Xlhq/pnLC6LZOjEgiAb/c3jYxBEPFnxsullpcHequbYIciwcCX5iFkfpsJK6W44b340hxy67KV6vlBl6B9Dhl3KzZLXqv2E9xEWLXNzMcQ3+s3LVJDY7mnQbGB2CqxU4xZvoMuBt0+Oc3t/fbnta2w+gRrbusDxT7sfhl2Run8wZiekiQqSt7c6+Usq+QKYfEBPm3efLS9Bm2UUeCu6d8oBglP5iW7z0eGDL/SSBrH67KTbI4A9f+Kj63/3yyzTqxjUiULa4+32lMoMl+LmdjU+RaxO08gPPXNHCfPAvh8yOwKNhao0UE07aiKRGRTfTI3xOL5THbkPZVBQwDvBDybBgWRc7DFGUNc9q+FslcT+fqKhqEopGsXJ1wHSKyVNEQrDAfh1d9HP84qYGzvAqt0H+tQ55LEKY/rBRInYnXop7uh3Ddpy8POnQniPaNTAAN7aR5l8twXrnbTDt2DuKTNiP2xSC4/fAZtsevxeLEbJS3GGfrjdnLTeNmW9/mYEKLGY7F++hKK9+YEIrf36RguUXCvjBuv/HE3pEcncUJJcdp22l8gxA6TI+sHDn/ggHHPslAyaAgPPWoY8eZPlND0c/zIm4eOoHKQx+g0TMULkHN4xCsGYxePkDT8TPKVWsLDWVoOAE4jR8DZ7HY23h25QTqZYJuqb62za/Rsjcm0GQ3+YfSka8JQNSWzVi3JAzhT5vGhI22uOjhbDw7X4AiebLSUp3e2EWDiKjTKnRIz6rAyOfj8Hb8SkTMn2Mah/ewp/HAe5upgVv0fbHVKxmGGz30K1rcPDBaXp1ojp0P+2GaJhfvvqdDSa0e+rLTSE06jqG/GI7yf+Yiv0KP8sKDSHz3LAKXzLo18ZikNl5rZCJeXIyL1r5Huu6GReO5hxL/gzzqHC1ob+Cj/H5XoPxf31n/nxqvoEQ02LSjR9j5Sgrdfzww6iHx62RBmxPGlVw8K35auRLZayDGBMxDVEIStizyh+ZMGnZ8Ybpaamo7XUGfH5vGzba+ecO9RW+Urik5+neUyOEbVpN1EV+DPIAzh9E8GbXjte08MH2mNwzye7Ev6PBZnqHFBI/WPGDsLXMa52QvZCvKS+UD3hj7E9PyPam3LwYtfxRNqX/E1Yxa9FoQgsHtXi0eAedQsSNk7ULlidYTWdQc2CU2n8Ho+zNf43L/8f4ieS3DzY90rb7e6uq+Xep6J9gBE2iykxqUXBKb7SAPeMoY2qyxDEe+bHmaSDvWD2NQgYOHTrc621R0cD+OKPeJiDqlQo4RBoZ6tMwCjVdglfsmXpg4VQPoDree8bRWh4xPutq9r5v09cNPpwM5Xx43xc6+k7AsLhw+36ciZnUUVm05DO3z4Zj39HOYrck2fh1OzP+cxZjlsRZjf9XH6zG+ohEPHQ7mWNRJox5HPjlg29fi3GkufnjCXwN91r52Zrj1wJRAmRDsR4aVCc3Kv9iPHMNABE7u2phScgRa+Pj7QVN7GGmHrIztv5yNlP1l0IhEwEdeTGtmkWzLmYjl/AAlVaYTelrfSfBpo+1kd/K7jD8T+7x/EEKsJut+CHwqwDjRYc4J0//oiG071+lzEOJSgPT/2Y98jT+emtpyPgpLmvGTME3OpfChZc8CQV+AzMzC1tvFPUj7CzmZVyWaqv2hDW6jv7oZ12cToP15LeqWhOH7pAyUf6VDxVeZuPT6ApS/cR69X38Tns09qB4MwcBFg9H0QSxK1u7CD2brVl55VByv7gwm0GQnA+EzUTQ+ijOQ/F42jpw8jVOicZoUk4xzlvPWuwVgXvBA6HOT8butolEi1z2Zi/S3YpFcO85qV0siog495I0p4ugpv9s4PVfGldPI2bsBr+TqRcOuJZ+QeRijKURa3AakZOmM6x7JSkVcbDac/dsbK3s3aTAl5Gm461KR9o3SRPUIwLKEJOx6Zzv+8qc1mDdWZMRaL8yLvV0WNt6yUdeJeO37FMLGanB+bzzibq0rEoCNsfhM69/mJGJ3VUU2El6ORPStr+PSYsoLK00z3MbFIvGjXOPnLY87H+/cjDR5MVAYOnMlwsfeQFbiOsTtVv5X5dgUs6cYI+evRRjzZ1LB9bEwhPmK/WbfeixOSEHqAbHNif0mfXcyouPScN5lEhb9p/lY2QKkRq432zZ1yNyZhjx4YNZ0ZaNzDUDEfC8YRNtpVUIqsnRyPdP+mC6248RsNSf+9Djy1jIs3Nn+174ZTmQjqxaYNtmv7YTEYxKCxVu79XVO92TbTl19tKmXFwJDPFBdVQPX4CBM6agHQN9JWBAZBO25NMSIeNt8nDIee6LlXB1BiFrc9hjqe0afx+Ec7gKn8N/A/QGlrD29PeC5eTcGrXsc+N+dqImMRXVkMurqHoU2ZTdGzPYwS1j7YMjSdzDkjRD0urAPtXLdN/ah4eGV+PHyx+9YYssEmuxm6MwoRM3wwtWjadielIykjAKMWhiDcD/L8KuBz/z1iH8xAENLP0OKXPe9wygaGYbY30yCmn2NiKgV2ThZF4Zp2mJkvpeMxO0pyKmbgdjIGcaJY1pwC0LsxpWY7WvA0X0pSEzagT3HgeDVKxEy4k6dw7bBsFlYM98DeW9vRIqugwZzO4PB1MdrNwRHb0DUr7xhOJluWnevqKhfrEFUyPA7dra/y7TeCI97DRHTh6A0O0183mL72LkfR+u8MbF5wrNepv913XOTAOV/TUxKQ47BG2GvbEBssEX/dqK2yG1p9SZjO2dM7WnkfJgqtrc0ZJ6shucvI7AxbimmtdichsD3Mdfb2+b2NJHAiiQ7YS1mm83o7B68FhsjZ8HHcBxpO+X2KffHz3C+nz9mTVSxfTYW49xZYMJ473b2XQNOHZcJpT9+Or69PdwNU5/wBmqzkWc8CXUPtu1U1Uf7hk6fAR/Z1V3EUzW0vmH4Q0IEgt3KkPW+6TN89+Pv4DpDbBfxYS2/paCnezAUD+kO4SGR4FoavOhDeC3ybZVousx+E6N1b8LTcuLM3oMxeN6reOivfxOPHxK3v8FrcxQ8/QZbSVZd8MAvozCqed2/vYMR4f5w7v0ofiKXI+W03d3LqUlQ7t9Vx789h2EetnzFO5m7VFaOSY+MVZbUY/0Tkb3YEocYgzqn+mgqEt7NxdVhAQibGQAfX49bDdTrVcXIP3YYmYV+WBMV1HomWqL7HNtCbbh0ENFx32Hemysx7R7vJmwX93F9dLQPfOc/05h8UtvaqyNegSYiIrrHuE4Nx5b/TkDUdC1OHkpBQnQUlq823WLeTEXe5dEImTuZyTMR3aK/+B3KvfwwmsmzEeuDbMUEmoiI6F6kcYNP8DxExSbg7T9vN455No17TsC6JbMQOKr9CW2IyLGcP3saYx7z44k1BeuDbMUEmoiIiIjoPjfhxe0cy2+G9UG2YgJNREREREREpAITaCIiIiIiIiIVmEATERERERERqcAEmoiIiIiIiEgFJtBEREREREREKjCBJiIiIiIiIlKhxyTQTk5Oyj3qClvrkfVPRPZiSzxhDCIie2FbiBxdR9uyUx8NmurqlCWyJOtG1lFbekwC7dy/HxoaGpQlsoWsP1mPtmD9E5E92BqHGIOIyB7YFiJHp2Yf6PfIOOi/+lpZIkuybmQdtaXHJNBug11Rfe26skS2kPUn69EWrH8isgdb4xBjEBHZA9tC5OjU7AMD5z6Dqnfe51VoK2SdyLqRddSWHpNAD3IdgAHOWlRereHZv06S9SXrTdafrEdbsP6JqCu6GocYg4ioK9gWIkfXmX3A5ZdPov+Uibi0OArXc/KYSAuyDmRdyDqRdSPrqC1OTYJyv0eoqr6GispqXL9xEz3srfVIcoyD7KYhzzTZesAwx/onos6yZxxiDCKizmJbiBydrftA7aefo+bDT3Dz27NoqjcopY5JjnmW3bbllef2kmepxyXQRERERERERD0Rv8aKiIiIiIiISAUm0EREREREREQqMIEmIiIiIiIiUoEJNBEREREREZEKTKCJiIiIiIiIVGACTURERERERKQCE2giIiIiIiIiFZhAExEREREREanABJqIiIiIiIhIBSbQRERERERERCowgSYiIiIiIiJSgQk0ERERERERkQpMoImIiIiIiIhUYAJNREREREREpAITaCIiIiIiIiIVmEATERERERERqcAEmoiIiIiIiEgFJtBEREREREREKjCBJiIiIiIiIlLBqUlQ7vcIVdXXUFFZjes3bqKHvbUeycnJCc79+8FtsCsGuQ5QSm3H+ieizrJnHGIMIqLOYluIHJ2t+0Dtp5+j5sNPcPPbs2iqNyiljsmpjwb9HhmHgXOfgcsvn1RKretRCfSlsgpcu66H6wBn9O7dWymljjQ0NKD62nUMcNZimIebUtp5rH8ispU94hBjEBHZim0hcnSd3QeuvLUTN46dxKCXXoD2sclw6ttXecQxNdXVQf/V16h65330nzIRQ1YtUR5prcd04ZZn+2TAGvzAQAasTpL1JetN1p+sR1uw/omoK7oahxiDiKgr2BYiR9eZfUBeeZbJ87C/JMI5cLrDJ8+SrANZF7JOZN3IOmpLj0mgZVcZebaPbCfrT9ajLVj/RGQPtsYhxiAisge2hcjRqdkHZLdteeWZiXNrsk5k3cg6akuPSaDlOBOe7esaWX+yHm3B+icie7A1DjEGEZE9sC1Ejk7NPiDHPMtu22SdrBtZR23pMQk0J2mwD1vrkfVPRPZiSzxhDCIie2FbiBxdR9uynDCMV5/bJuumvUnV+DVWRERERERERCowgSYiIiIiIiJSgQk0ERERERERkQpMoImIiIiIiIhUYAJNREREREREpAITaCIiIiIiIiIVmEATERERERERqcAEmoiIiIiIiEgFJtBEREREREREKjCBJiIiIiIiIlKBCTQRERERERGRCkyg6S4rQOpLy5CQVaEsExHdAWfSsPClzXCs0FOBrI3LsPD9AmX5XsJjBRERtecE/u0/E98lnVCWu48DJ9B6lOjSsenVKCwWB+WFL0ViVUIKsi7olcepyy4dRLSs243ZKFeKiIjIOsPlAmTtTUbcbyPFMUkel8RtxVpEb03Bx7oy6BuVFYmIiO62yxn4Xias/nNxKV8pa8/VTFwwrr8apZeVsnuUwybQ1dnJiHkvFwbfUCyKXImoJfMwseE4UhPWI/UMk2h7OP/lYVz19caYwmwcK1MKiYiopcYaHHsvFsvjUnGy7ySER2/C228mmm6borB0+hCcy9iAVTE7kMNYSkREPYm2Hjc/+RL1ymJbqj7ahQbl/r3Oca9ADwrCui2JiF0QhGkT/TDBPwgRr69ByKAaZH2k4xXTrqo7js+yDQgMCcd0rzJk/L1QeYCIiG5prEDWltew/eIkRG1JQNSzARjjoYXWpfnmgTEBcxCVkIT4GXqkxm9AeqFB+WMiIqK7y2nkYOCvGai8qhRYU/8landVotfPfJWCe5vDJtCuE/3h46IsNOvlhYkTxe/CMnCUVdcYvj2OYwjA1HFumPqEN/R5x3Ge3Q+JiMwYkL93M1IrAhAVPa/1McnC0OA12DhXg4//nI78OqWQiIjoLnJ6JhR9tCegTz+Dtpr6+i8yUI8n0ddfKbjHcRIxazTKb7JRDfKyddAE+cNHbGGufuJ3bTY+O6HyqsmtyX30KMpKQcxqOR4wEss37Ud+rVzBvHwZFse2MXa9thg5u7chWllPjiXctPc0qpnIE93Xyk/uR2LC2lvzWyyPUze/RXnWZrF+GvIba3Bq7zasWmH6+5iduSiRccOifPmmdJyqMv2tOf2FXKRsjcXyl+V6Ikb9dhvSvqlRHjVTlo3ULCDk5TD4aJWyqtNI26q89xXrsT0vF2mrlyH1jOlh9+DnEGLIxsGvLf4fm+Pd7cm59BeysT3ONC/I4tWbkX7W9Brm5cb3lFUsorCFxgqc+shs/PbLUaLeslHUcbWrry9LPFYQEd19/R+Hc7gLmlIzUGmtH3fDGVS9fQJO4aFwGaCUWWqoRdWnibjwwlx8Zxwn/St898JaFH96HjeVVczd+FcmiteG3Vr3+/UfoPJaR53I7YcJtLnGQpw8KvLnqd4YoxSRDSq+Rs4ZLQIne5mWXcdjuq8BR/73eOtGV5sMKMrcgR3nhiP0xaVY9pwfnC8cxKb/PoxTWclI+FKLEFEux65PqNMhdVMKjlQrf2pUgaz/3iAanRpM+7VYL3IlIh53xfnDyfivvQXi2YnoviSSquikz1A94mllfotQ+OhljEhWOeN2NY5+kIh0+GPREhE3ZnigXJeKhA90OPZBAt694of5ojzqxQC4XziMxI3pLXvXVGSL5F0k4ZqfImyZWC8yHIEDC5H5VgJSz7aMPCVH/44S3zmYpYRK+bcJMTuQP2wB4uX45/gFGKVLR2atF4Y+qKzTywu+E4FTZ82HxXQ93hkufoakdwow6pkIRMq42q8YH29NRuY34v/ZkgvnmaI8MgJhj+hxZM9mkdi3THDzP4hF4uFqjHw63Pj6y+Z447ouDQlJHUwi2Yn6so7HCiKiu23w7IXopf8ctV9UKiW31R/NwM3SEeg309d64tlQhrLYMFS+/jmaHluIgUkJcE1aiX4PlaH+9eUoSTrRIom+eSIZpS8kov6GP7R/kutGod+QL1G1SJQp63Q3JtC36EUDYDsy67wQNnsSL0J3QcnRbJx3CcDU0UoBBmLqdD/gm1wcbdFwaU8x8vRBiF02wzhGfVrIUqx9TrQyC9ORmDkCUdFhCDSOXZ8hGnszoDWcxj8sJn9znrwUWzeuxLwAsZ5YN3D+GiyaLJrHWTrk88oC0f2plwfmxW5C/K35LUSMWDEL7oZC5BxXk0EfR/4DyxD/fIApbjy/FlFBWuizU7D90tO3YtKEgDBEveANVIm4dkH5UyMtpi7bgC2r5phi1MQAhEeHYwpqkJVn/vVRNcj/tgIjx3vD1bhswLH96SgaJxLQ+X4YKsc/u3khZHaAeEaht3ElI88RIhaWVrRITLsa74p0ejwVsxQh/kqdvTIPY1CItLcOYOSKNQg3Pq8/QpYtQ4iLAad0Z1ueEP3JHMRveQ0Rwf7G15cxO+pXbjCcy8WxdmdbVVtfbeGxgojornswBAP+ow8a9mbiaouZwspwZc/nwLyFGDxcKbJQe+CPuJ7lgr470/BQZCjcH/OH22MhGPbGbri/7oum1N/jSvMs3/UnUBGXgaafr4T7m1Hw/Llc90l4Rr4Nj0Vj0KSs1t2YQEuNFTjy7npsyu2D4MiVCG4+0082EI3UzDJop0/CGLOtSzteNKpQgMw89VPIThfP0dyrUXIfNx7u8vcTQbe7O0qjvTFV/Dp/yfy53URDahJcW2zhWrGqvNRTivLWJ8iI6H4wLgizR5kHCGHUOBF/RJL4wxXTcruGI9DfQ7kvaTBmnJ/x3pTgALibxRTXsX4YKdLIkh/MEjI3kWROHagsKLRe8DWGHvOktxQlIvEe6eGmLBfizFEDpgSIuKWUGPXVwhkjMHSQsmyVHeKdvz+mmFeb2zhMlMfCB3+BYF+zB5Qr4Pi+GCWmEiOfoFkYaVHtIx+W9VaM8vbOW6iur7bxWEFEdLf1weBnQuF0+gNcO3r7OnBjfgZu/MMF/UIfRz+lrKWLqNl3BggWCfajrScCGfj0QnEYrMXNHNN3Ozd+8znqSsXzvRSKgWYnliXnp0LFu7gzWhwyHFJZLpJi4vHuufFY9kYCws0bCtR5544jp1aLwJ/KxocZl0l4wh8oyTneotHVNi+M9FTuNuvb39iwdO3/I9Nys14aY48B/U2LznaNNSg6mY30PalITIhF9KtRiNnD2cCJ7neGy4XIOZCG1J3bEB0Ti1UrtiFLeaxjozHS4iSqRms6LjhrLfomNccevcXglOpinMraj9TdyYgTrx+9Oh6p1kKPCFma5gZAVSmKDG4Y5tnyNQylIolzMb1Os9KLhdA85GlMEm/pYrwbM8L8pIH0I2hlW8alf6seWRpZUGto2b250YDywlx8vCcN27eK149Zi8WJ2cqDHVBbX1bxWEFE1BP08glF/5/Vo/6jz5UeSvWo/CQDTX6/gYuPscCKSpFkA06TfFucCL2ltwd6Pyp+/+sirotf+pKL4qc/+tzq5Wqmdx84KXe7m0Mn0Ppv0hAdn4aKibL7VjimNV8IIBsZcCwnW+w0emRuNE0Gc/sWiSSdWOXyYeScM63drS5nY1PkWsTtPIDz1zRwnzwL4fMjsCi4jf4jRHQf0CN/TyyWx2xD2lcVMAzwQsizYVgUOQ9TlDW6W3n2Niz+7QYkHSjEdY0bpj4ThvAXw9E69LjiAZGoF11WxhK7umEoKiyueNbgmO64MYG/1bDQH8c/dFoET/VWCoS7He/0BUiNiUL0lnTkVRjg7PUU5j2/AFHPTVJWaJv6+uomPFYQEdmJB4bMfxLI2oerxWKxOAPX/gpo/vPJlj2rukwkyhZXn+80x02gC9Pxu7e+xogFcYif72fRfYtsUnca/8wzwD3QNIlM69scTNDokZVzvNsnZsk/lI58TQCitmzGuiWiQfa0aTzjaJ4kIbp/VeiQnlWBkc/H4e34lYiYPwfBckzvw55wVlbpVo0FyNxbAE3ASrz1pzVYNj8Ms43jar1aXi02GoKho0QC/e9S02Ivb0ycrkHO7hQcKdNDX1uGU3uS8M+hQRh5+SvknKmAvqIQHyelID9gKULHmv5MutvxrjxvP7IqhiMsPhEbI8MRPtc0/txnWAc9ujpVX92DxwoiIvvpMzUU/Twv4uahE6g89AEaPUPhEjRYedSawejlAzQdP6NctbbQUIaGE4DT+DHG43hvY9eoE6iXCbql+to2v0bL3hw0baxBzkeHUT35OSyazqOkvVQfzcYRuCEw2NQAaX17Ck9M1cBw9DhOdet3mNag5JJI0Qd5wNO8/dZYhiNfWtvjiOi+UFGGIvFr6K1xxSb6r3XIU+53q2rZDRtw/4lHy65ol/6JnFahR4MJU/2B3FwcM7YaNJjy4muIGHsR78ZGYfm6RBzsPx+Lnp2FsF9pkJUYi+Vx23Fm1FL8/jfeZs9/9+NdxWX5Op4Y2qLa9TiWJ7sdtaNT9dUdeKwgIrKr3r4YtPxRNKX+EVczatFrQQgGt3u1eAScQ0cAWbtQecL4/YMt1BzYhTr9YPT9ma9xuf94f5G8luHmR7pWX291dd+ubr9A18wxE+jGizh/Rhy0XQw4f/I0Tlm55V++Ux/B/aIMeYcKgAcDMGWYUtSKaCBOD4DGoMNnR1V8x6fNBsJnooex60jyeyKpl5+p7jCSYpJxrq0pAIno3veQN6ZoYPxO3/RcUyzP2bsBr+Tq78xXEw4ah6ki/hV9uAMpWTrj6x/J3IHopO/gZiX0aB59GqEP6vDu3tOmM++9PBC4ZD3+8s527PqfzVj3rJdILLUY8+xrt8uet+wxdffj3Rhv+c0VuXg3cT9y5OufzEVaQiz+fsNiLgz5lVGbIrH41XTky5Oonawv++OxgojI3rS/kJN5VaKp2h/aYJEcd8D12QRof16LuiVh+D4pA+Vf6VDxVSYuvb4A5W+cR+/X34Tnw8rKD4Zg4KLBaPogFiVrd+EHs3UrrzxqnOfiTnDMBLqywjiRVXlOKhKTkq3e0r9R/X1LJJV9g5xLgPvPJmGoUmTVOH8EuwD5f/9a1eyqtho6MwpRM7xw9WgatovPMymjAKMWxiDc707tWkR0x/WdhAXrwjBNW4zM90Qs356CnLoZiI2c0X5cshsPhKxeiZDR1cjbkyKOJTuQcW4EImLDMNFa6BEJ8+wVYRiq24G493Qo76jvWRuP3+14p5kchtj5/nD+92dIka//Xi70M9eK92Q5u5elTtZXN+CxgojIzvo8DudwFziF/wbuDyhl7entAc/NuzFo3ePA/+5ETWQsqiOTUVf3KLQpuzFitodZwtoHQ5a+gyFvhKDXhX2oleu+sQ8ND6/Ej5c/fscSW6cmQbl/Vx3/9hyGedypUU/3r0tl5Zj0iNngOJVY/0RkL7bEIYeOQVXHkbJJJPvXPBA4dwYCH5HfA608dvMKigq+xsGDhZi4eg2COeqIqENsC5Gj62gf+M5/JkbrDilLZE17deSYV6CJiIh6ikGTELExEVtWBEB75jB2/HEdlq+OMt3ikpCSdwVjZz2Hqe3Nw0JERER3BBNoIiKiu62XBu6+QQiLfA1b3kzCLjnmWRn3vOWVCMwOGM5viyAiIuoBeDgmIiIiIiIiUoEJNBEREREREZEKTKCJiIiIiIiIVGACTURERERERKQCE2giIiIiIiIiFZhAExEREREREanABJqIiIiIiIhIhR6TQDs5OSn3qCtsrUfWPxHZiy3xhDGIiOyFbSFydB1ty059NGiqq1OWyJKsG1lHbekxCbRz/35oaGhQlsgWsv5kPdqC9U9E9mBrHGIMIiJ7YFuIHJ2afaDfI+Og/+prZYksybqRddSWHpNAuw12RfW168oS2ULWn6xHW7D+icgebI1DjEFEZA9sC5GjU7MPDJz7DKreeZ9Xoa2QdSLrRtZRW3pMAj3IdQAGOGtRebWGZ/86SdaXrDdZf7IebcH6J6Ku6GocYgwioq5gW4gcXWf2AZdfPon+Uybi0uIoXM/JYyItyDqQdSHrRNaNrKO2ODUJyv0eoar6Gioqq3H9xk30sLfWI8kxDrKbhjzTZOsBwxzrn4g6y55xiDGIiDqLbSFydLbuA7Wffo6aDz/BzW/PoqneoJQ6JjnmWXbbllee20uepR6XQBMRERERERH1RPwaKyIiIiIiIiIVmEATERERERERqcAEmoiIiIiIiEgFJtBEREREREREKjCBJiIiIiIiIlKBCTQRERERERGRCkygiYiIiIiIiFRgAk1ERERERESkAhNoIiIiIiIiIhWYQBMRERERERGpwASaiIiIiIiISAUm0EREREREREQqMIEmIiIiIiIiUoEJNBEREREREZEKTKCJiIiIiIiIVGACTURERERERKQCE2giIiIiIiIiFZhAExEREREREanABJqIiIiIiIhIBacmQbnfI1RVX0NFZTWu37iJHvbWeiQnJyc49+8Ht8GuGOQ6QCm1HeufiDrLnnGIMYiIOottIXJ0tu4DtZ9+jpoPP8HNb8+iqd6glDompz4a9HtkHAbOfQYuv3xSKbWuRyXQl8oqcO26Hq4DnNG7d2+llDrS0NCA6mvXMcBZi2Eebkpp57H+ichW9ohDjEFEZCu2hcjRdXYfuPLWTtw4dhKDXnoB2scmw6lvX+URx9RUVwf9V1+j6p330X/KRAxZtUR5pLUe04Vbnu2TAWvwAwMZsDpJ1pesN1l/sh5twfonoq7oahxiDCKirmBbiBxdZ/YBeeVZJs/D/pII58DpDp88S7IOZF3IOpF1I+uoLT0mgZZdZeTZPrKdrD9Zj7Zg/RORPdgahxiDiMge2BYiR6dmH5DdtuWVZybOrck6kXUj66gtPSaBluNMeLava2T9yXq0BeufiOzB1jjEGERE9sC2EDk6NfuAHPMsu22TdbJuZB21pcck0JykwT5srUfWPxHZiy3xhDGIiOyFbSFydB1ty3LCMF59bpusm/YmVePXWBERERERERGpwASaiIiIiIiISAUm0EREREREREQqMIEmIiIiIiIiUoEJNBEREREREZEKTKCJiIiIiIiIVGACTURERERERKQCE2giIiIiIiIiFZhAExEREREREanABJqIiIiIiIhIBSbQRERERERERCowgSYiIiIiIqJ72An8238mvks6oSx3HybQ1MMUIPWlZVj4foGybCeNhUh/NRKLE3NRrhQRkQM7k4aFL21GVoWy7BAqkLWxG+JrVzjk50BEdB+4nIHvZcLqPxeX8pWy9lzNxAXj+qtRelkpu0c5bAJtuHwc6UkbsGqFaEzIhO3lKMQk7ccpHsTvTwYDDMpdm+nLcGTvNkSvjjRtMyvWIm5nNopqlcfNVRUgc+ft7Wvx6lhs2nsa5Y3K4+Y6sW712cPYnrAWi+XrvxSJ5a9uQ9pJbrRE9wPD5QJk7U1G3G+VGKPEmeitKfhYVwa9tfhBRER0N2nrcfOTL1GvLLal6qNdaFDu3+scNoG+eiYX+X0nY96SlYiKXIllz02C5uxBJL7OM+H3pb7eCPtjEv4SFQB3pahzapCVtB7v5hngMzvctM3MHQ8cT0NcfBry9cpqRgVIjdmG9IuuCPyNafsKDxqCksPJiNmSbZEYd2Lds2l4ZWsGLroGIFysFxUZhmC3UmQmxSOBGy3RvauxBsfei8XyuFSc7DsJ4dGb8PabiabbpigsnT4E5zI2YFXMDuSUKX9DRETUAziNHAz8NQOVV5UCa+q/RO2uSvT6ma9ScG9z2ATaPWglYpfMQuBEP0wQt2nB4YiPmYOhhkJkHmELhVpzD1yDtxLXIiLY//Y2Ez0DrlXZSM8zT2C1GPvCevwlYSXmBZi2r8Bn1+D3i/yAc+nIPKusZtSJdft5ITwhCRsj5yjbbQDmvRKLZSKPP7/vM+Tz6hTRvaexAllbXsP2i5MQtSUBUc8GYIyHFlqX5psHxgTMQZTY9+Nn6JEavwHphV3uT0NERGQXTs+Eoo/2BPTpZ9BWU1T/RQbq8ST6+isF9ziOgTY3zAs+4lf51WrTMtEtAzFhuje0lnuMlx+mil/nS6+Ylo2GY1qAh3L/NtexfhgJA4pKzZPtTqw7yh+BrVYdiNF+wwHDRZRUKkVEdI8wIH/vZqRWBCAqeh58XJTiNgwNXoONczX4+M/pyK9TComIiO6m/o/DOdwFTakZqLTWj7vhDKrePgGn8FC4DFDKLDXUourTRFx4YS6+M46T/hW+e2Etij89j5vKKuZu/CsTxWvDbq37/foPUHmto07k9sME2lx1BUrErwmjRUJCtqktRs7uluOE5XjeaiunpPQXcpGy9fZ43pikg8ivtXZlxTSxmOymrL+Qje1xUca/Wbx6M9LPmvpOm5cvXLEe27OK0aJXtdXJc24/LypOI635vcjx8DtzUdKJK7qa3sodNXr3Ue6o0Kl1ld9EDq785H4kms8VEJeCrAstI4I15VmbxfppyG+swam925R5CURsao4HFuXLN6XjVJXpb82ZYlsslr8s1xOx6rfbkPZNjfKombJspGYBIS+HwUerlFWZxSIZy/JykbZ6GVLPmB52D34OIYZsHPza4v/pROxtyR7xVWiswKmPzMZvG+NoNoo6rvZbyk+mY5Py94tXW3mdimwkiMea68Lcrc9OWSYiojtn8OyF6KX/HLVftL6aU380AzdLR6DfTF/riWdDGcpiw1D5+udoemwhBiYlwDVpJfo9VIb615ejJOlEiyT65olklL6QiPob/tD+Sa4bhX5DvkTVIlGmrNPdmEBLjQZUF+uQ+mYazvuGIfyx5pYMdY5IUv97g2jcaDDt10uN43kjHnfF+cPJ+K+9BS0m8dKfScPvElKRd3M8wozj0MMR7Po1EuN346iyjiXDxc+Q9E4BRj0Tgcgl8zChXzE+3pqMzG+ykbglF84zRXlkBMIe0ePIns2i4WmlwWqFfN6EhP3A9AXi78V7DhyCcl0q4t473vHEY+dOIw8aTPH2UgraVl1wHOfhganjBiolbVO/bg3yTxYCwybBZ5BSROTIRGyJTvoM1SOexiI5V8CSUPjoRXzflKxyfotqHP0gEenwxyIRmyJmeBjjQcIHOhz7IAHvXvHDfBmzXgyA+4XDSNyYjvPmSapI8hITRCKn+SnClpliW+DAQmS+lYDUsy0jSsnRv6PEdw5mNYcPmSDG7ED+sAWIl+Of4xdglC4dmbVeGPqgsk4vL/hOBE6dFfv9Lepjb1u6Gl/zP4hF4uFqjHxamSNijjeu69KQkJSt4psPDCjK3Iy4j2UYlu9f1NmgK8bX2X20Exk4ERHdHQ+GYMB/9EHD3kxcbTFTWBmu7PkcmLcQg9u4Pll74I+4nuWCvjvT8FBkKNwf84fbYyEY9sZuuL/ui6bU3+NK89nR+hOoiMtA089Xwv3NKHj+XK77JDwj34bHojFoUlbrbg6dQJvOWC/DwiWRWBWfhvKfrcXbUUFw52kFmzlPXoqtG83G885fg0WTRZM0S3d7jG5dAdJ3ZkM/NgwbY0Ti7C/X9Ufwgtew9dkRra9sKIp0ejwVsxQhcn3/GYh8ZR7GoBBpbx3AyBVrEG58TX+ELFuGEBcDTunOtvlc5op0FzE95jWEmb3nZf4aGPJycczaDNvN9AVI3XkYhrHzMO9RjVLYhsvZSHq/AK5B8610w7bQiXXLs7aLRvNABD8fgKFKGZFD6+WBebGbEL8gCNPkXAEyVqyYBXdDIXKOq8mgjyP/gWWIF/uUMR48vxZRQVros1Ow/dLTiF02w/S8AWGIesEbqMrF0QvKnxppMXXZBmxZdXuugvDocEyRExHmmfeAqUH+txUYOd4brsZlA47tT0fROJGAzvfDUDn+2c0LIbMDxDMKZj1MPEeIjLu0okViqir2tqPL8fUncxC/5bXbc0SEiET4V24wnBNxtMOvKylG3iV/xMfMM6uzCEzTGHAk97SqOE5ERHdTHwx+JhROpz/AtaO3rwM35mfgxj9c0C/0cfRTylq6iJp9Z4BgkWA/2noc08CnF6KvthY3c0zf7dz4zeeoKxXP91IoBlr0vHR+KlS8izvDoVPFB8bPMZ4pj4qMQPjTfqj+aAOWv5qKY1a65JEabqLRNAmuLbYqLUYbr86Wory5V8e/dMiq1SJ4buuTFa7TgzBdud+Kvz+mmHcOcBuHifKqzIO/QLCv2QPKFRp8X2zskt8h/6cR3Hx1x0gLH9GolVeirrbVcqvQYXvcNuT0DhLbT/snXfQXDiIhLg1FY8MQ+xtvU2O4DarXbdSj6G+bEbOnGGNeWItw8/+fyJGNC8LsURb7w6hxmCB+Ff1gPldBW4Yj0N/8zJUGY8b5Ge9NCQ5osa+b5irQo+QHs0DhJpLMqRY9R7QiJhnDoHnSW4oSkXiP9HBTlgtx5qgBUwJEDFVKjPpq4YwRGNpuDxOVsbc9XYyvPkGzMNKi2kc+LOutGOUqzltMf9oijmr98NNJ4vd1Pa6bSoiIqAfr5ROK/j+rR/1HnysnPutR+UkGmvx+Axc5yZRVlSLJBpwm+Vpv8/b2QO9Hxe9/XTQeC/QlF8VPf/QZLR+00LsPnJS73a2dZv/9T/Ogt/FMufHq59wIxG9Zg8CGXCT9WU2XM7KqsQZFJ7ORvicViQmxiH41SiR55l0NgfLLpeKnH8aOMC230EsjmqvWjRlheTn2R9DKk1Uu/Vv9jUYW1Kr77ufWzyvabq6yUWu94VeSuwPRr6fiO98IbNxoNnbRkkhy8z/agFUJB6CZ8xreWt1Oot2ZdWsLkL5xHeIOaoxX2tYFNTfAiUgyXC5EzoE0pO7chuiYWKxasQ1ZymMdG42RLU6oiXiiNe3kzlqLSKPEK73e4kxbdTFOZe1H6u5kxInXj14dj9SWYdBEBKhb8ydUlaLI4IZhni1fw1AqEmCXlnGx9GIhNA95tvxKPhWxtz1djq+NBpQX5uLjPWnYvlW8fsxaLE7MVh7syHAM/bFy9xYNjNVeWAZVPe+JiOgu88CQ+U8CWftwtVgsFmfg2l9FNP/PJ1ueGO4ykSjf5Xl/HDqBbkXrjZCZw8UBW2d1YhjqwOVsbIpci7idB3D+mgbuk2chfH4EFgVbG/QgGoSWrbKeTiS5p/bEIu79CkxYvgFbXvRvJyEuQ9ab67Ap1w1hMskNGd56Bu9mnVm3TNTxum3IGTzPeMInxPJKG5FD0yNf7KPLY7Yh7asKGAZ4IeTZMCyKnIcpyhrdrTx7Gxb/dgOSDhTiusYNU58JQ/iL4WgdBl3xgEjUiy4rY4ld3TBUpIotrxbX4JjuuDGBv7Wn64/jHzotgqfKXjKKTsXebiCHs8REIXpLOvIqDHD2egrznl+AqOfkJWQ1xPGArREionten6mh6Od5ETcPnUDloQ/Q6BkKl6DByqPWDEYvH6Dp+Bnrw3UaytBwAnAaPwbOYrG38czuCdTLBN1SfW2bX6NlbzxkWaWF872W3PUA+YfSka8JQNSWzVi3RDQanzaNIRxtcYHU2XhZoQBF8kK0pbqe213v/Ifrkfj1cCyKfw3h49ub3KsGR5I2IO1aEGLjlyK43SS3E+tW65AYnw79L9biD8uDWnWXJHJ4FTqkZ1Vg5PNxeDt+JSLmzzHNsfCwp/HA2+0aC5C5twCagJV4609rsGx+GGYbxw57tbxabDQEQ0eJBPrfSiDs5Y2J0zXI2Z2CI2V66GvLcGpPEv45VOzrl79CzpkK6CsK8XFSCvIDliJ0rOnPJLWxt7uU5+1HVsVwhMUnYmNkOMLnmsaf+wzrniB166SDmYpSa60pIiK6o3r7YtDyR9GU+kdczahFrwUhGNzu1eIRcA4dAWTtQuWJ1hMP1RzYJVKDwej7M1/jcv/x/iJ5LcPNj3Stvt7q6r5dqnqe2gMTaHN60fg5JA7CvpM6/D5OslSDkktisx3kAU/zNlNjGY582bJhox3rhzGowMFDrSeHKTq4H0eU+z1KdS7SM2sw5dfhmGbRvbOVc4ex+xtXhPw/8zCmo/ZjJ9Y9n5mGU4OeQsRcr7bHRhM5sooyFIlfQ2+NKzbRf61DnnK/W1XLbtiA+088Wu6jl/6JnFb5nQYTpvoDubk4ZgyEGkx58TVEjL2Id2OjsHxdIg72n49Fz85C2K80yEqMxfK47Tgzail+32J+BPWxt7tUXJav44mhLapdj2N5OuW+nQxwhXyJon991/LYoT+Ov+feqWYTERG1R/sLOZlXJZqq/aENtjZesyXXZxOg/Xkt6paE4fukDJR/pUPFV5m49PoClL9xHr1ffxOeDysrPxiCgYsGo+mDWJSs3YUfzNatvPKoOJLeGQ6aQBcgLTYZKQdycerkaeMt50AK4qK3IUvvjfAXAuzcV98RDITPRA/jeIfk97JxRNar7jCSYpJxznLeercAzAseCH1uMn63dT9yjJ+BSFDfikVy7bg71tWyUy4WIl803ZxvFt7aZlreClBeZ1q1/IKcnXYI+lRbW0/eilFtWrUT61bgvPxOVrc+qP7G2nriVqzua7uI7lsPeWOKOHrK70NOzzXtFzl7N+CVXD3GKKt0q0HjMHWYSPA+3IGULJ3x9Y9k7kB00ndws9KbWvPo0wh9UId39yonE3t5IHDJevzlne3Y9T+bse5ZebJMizHPvna77Hk/i8nCOhF7u8kY70mi0ZKLdxNvx/O0hFj8/Ubz93M1q0DWpkgsfjUd+Uq87JS+fnhCHDsMOnG83n7Y9L/m7semuP3ApDvUXZ2IiNrX53E4h7vAKfw3cH9AKWtPbw94bt6NQeseB/53J2oiY1EdmYy6ukehTdmNEbM9zBLWPhiy9B0MeSMEvS7sQ61c9419aHh4JX68/PE7ltg6aALtiYlTRSMnKw2JScnGW+qhi3CdEYGNm9ZYzMhMag2dGYWoGV64ejQN20WdJmUUYNTCGIT7WZ4P0sBn/nrEvxiAoaWfIUWu+95hFI2UM09Pgpp97U4zTXxWIRrmpu2l9W0/Tl0zrVvxg7waU4B0q+vJW+6t2WvVr3sF5XLVM/utrKPc/m6tTzyRA+k7CQvWhWGathiZ74l9YnsKcupmIDZyxh36mjcPhKxeiZDR1cjbkyL2yx3IODcCEbFhmGjttLhImGevCMNQ3Q7EvadDeUeDt9p4XH3s7R6aySJ2z/eH87+b43ku9DPXivfkqaxhL+LY8Xys8X+t/ybd9L8evIKpK9Zi3ug7dd2BiIiMHgzFQ7pDeEgkuJYGL/oQXot8WyWaLrPfxGjdm/C0zLV6D8bgea/iob/+TTx+SNz+Bq/NUfD0G2wlWXXBA7+Mwqjmdf/2DkaEi2NQ70fxE7kcKaft7l5OTYJy/646/u05DPNoPUqMOudSWTkmPWI2OE4l1j8R2YstccihY1DVcaRsEsn+NQ8Ezp2BwEfk90Arj928gqKCr3HwYCEmrl6D4Ds0rpnoXsa2EDm6jvaB7/xnGpNPalt7deSgV6CJiIh6iEGTELExEVtWBEB75jB2/HEdlq+OMt3ikpCSdwVjZz2Hqe1NZEpERER3BBNoIiKiu62XBu6+QQiLfA1b3kzCLjnmWRn3vOWVCMwOGG4x9pmIiIjuBh6OiYiIiIiIiFRgAk1ERERERESkAhNoIiIiIiIiIhWYQBMRERERERGpwASaiIiIiIiISAUm0EREREREREQqMIEmIiIiIiIiUqHHJNBOTk7KPeoKW+uR9U9E9mJLPGEMIiJ7YVuIHF1H27JTHw2a6uqUJbIk60bWUVt6TALt3L8fGhoalCWyhaw/WY+2YP0TkT3YGocYg4jIHtgWIkenZh/o98g46L/6WlkiS7JuZB21pcck0G6DXVF97bqyRLaQ9Sfr0RasfyKyB1vjEGMQEdkD20Lk6NTsAwPnPoOqd97nVWgrZJ3IupF11JYek0APch2AAc5aVF6t4dm/TpL1JetN1p+sR1uw/omoK7oahxiDiKgr2BYiR9eZfcDll0+i/5SJuLQ4Ctdz8phIC7IOZF3IOpF1I+uoLU5NgnK/R6iqvoaKympcv3ETPeyt9UhyjIPspiHPNNl6wDDH+ieizrJnHGIMIqLOYluIHJ2t+0Dtp5+j5sNPcPPbs2iqNyiljkmOeZbdtuWV5/aSZ6nHJdBEREREREREPRG/xoqIiIiIiIhIBSbQRERERERERCowgSYiIiIiIiJSgQk0ERERERERkQpMoImIiIiIiIhUYAJNREREREREpAITaCIiIiIiIiIVmEATERERERERqcAEmoiIiIiIiEgFJtBEREREREREKjCBJiIiIiIiIlKBCTQRERERERGRCkygiYiIiIiIiFRgAk1ERERERESkAhNoIiIiIiIiIhWYQBMRERERERGpwASaiIiIiIiISAUm0EREREREREQqMIEmIiIiIiIiUsGpSVDu9whV1ddQUVmN6zduooe9tR7JyckJzv37wW2wKwa5DlBKbcf6J6LOsmccYgwios5iW4gcna37QO2nn6Pmw09w89uzaKo3KKWOyamPBv0eGYeBc5+Byy+fVEqt61EJ9KWyCly7rofrAGf07t1bKaWONDQ0oPradQxw1mKYh5tS2nmsfyKylT3iEGMQEdmKbSFydJ3dB668tRM3jp3EoJdegPaxyXDq21d5xDE11dVB/9XXqHrnffSfMhFDVi1RHmmtx3Thlmf7ZMAa/MBABqxOkvUl603Wn6xHW7D+iagruhqHGIOIqCvYFiJH15l9QF55lsnzsL8kwjlwusMnz5KsA1kXsk5k3cg6akuPSaBlVxl5to9sJ+tP1qMtWP9EZA+2xiHGICKyB7aFyNGp2Qdkt2155ZmJc2uyTmTdyDpqS49JoOU4E57t6xpZf7IebcH6JyJ7sDUOMQYRkT2wLUSOTs0+IMc8y27bZJ2sG1lHbekxCTQnabAPW+uR9U9E9mJLPGEMIiJ7YVuIHF1H27KcMIxXn9sm66a9SdX4NVZEREREREREKjCBJiIiIiIiIlKBCTQRERERERGRCkygiYiIiIiIiFRgAk1ERERERESkAhNoIiIiIiIiIhWYQBMRERERERGpwASaiIiIiIiISAUm0EREREREREQqMIEmIiIiIiIiUoEJNBEREREREZEKTKCphylA6kvLsPD9AmXZThoLkf5qJBYn5qJcKSIiB9LNMaBatwOLX45F2lmDUtJF1TokrYhE9N4C3HrGM2lY+NJmZFUoyx04/1EsFq/YhhyV699PrH0e5VmbRf2lIV9ZJiKi+8kJ/Nt/Jr5LOqEsdx8m0LfUICdRJG6daJzQPcRguN0ItZfqXGySyf7G7NYN8qoCZO7cgFUr5Da1DItXx2LT3tMob1Qeb0tjGXLeXosElRvh+b1RxudPPaMUtEF/Nh1xL7fRcNSX4cjebYheHWl8roUr1iJuZzaKapXHb6nB+axUbHo1CovlevL/+u02pOQWQ9/R/yWofa9E3aI7YoCZ+pt65Z6diPfbtWcU/2+dcrc91cU4ciClxX698OUoRCckIy2roOOY1UPZ/fMgUk3FhYCKbCTweEj3ussZ+F4mrP5zcUnNmcmrmbhgXH81Si8rZfcoJtAKw5kDSGMgu3/19UbYH5Pwl6gAuCtFXWNA/sfpbVzJEAfPmG1Iv+iKwN+sRFTkSoQHDUHJ4WTEbBHJtrUGaaMB5SdFkhu5Hilf1yiFHRAH4LTDHTQSqwuRtT0Wq7YeRpHV7KEGWUnr8W6eAT6zw43vddnc8cDxNMTFi4S7xdOX4ugX1Rg5IwyRYr2oyHCEjLiCvPc24HfmV8msUfNeieyiDEd2bkOi5WVXu8eAltwD1+Avf05A2DiNUqLSJR22b01ufZXYLQDr/icJW573RiefUaGBz/MJ+Mv/rEGgm1LUgh5Fmduw+LebcbDCC7NWxOCtNxPxtrxticHK2X7QH92BmMgNSD977+27Nn8eRETUOdp63PzkS9Qri22p+mgXGpT79zom0JLs2vdeLjSDtEoBUQcKM7A990dwdVGWW9Bi7Avr8ZeElZgX4IcJE/0Q+Owa/H6RH3AuHZlnldUU+pNpopEaieikbGC8n8rGfQ2O/L/pKB80UFm2VIasTVHGxnHaheGY4KUUWyEbmm8lrkVEsL/xvU4LDkd89Ay4VmUjPc+8VS8SEPE/hSnrTZgYgHmrYrDMX4PqrFycavNqV0fvlcieqnFOVwB9d15utqfqQhwRCeqdfbt65L+/HnFZWoQnJCF+QRAmDHeD1kWr3NwwcmIQItYl4q1lo3HkrfVI0rFrFhERteY0cjDw1wxUXlUKrKn/ErW7KtHrZ75Kwb2NCbRw/sPtyBwUikUzPZQSonY0FiLtz4fhPncBZj2olLUwHNMCWm9LrmP9MFI0k4tKWzZEr1eUAuNmIeqPoiH7nB9clfL2VOftxrvf+2PRrycrJZaqUVLqgekvvoa3Ni7FUyOU4lYGYsJ0b2gtI4GXH6aKX+dLr5iW26TFiNHDxe8KXL1mKrHU8XslojupPDsZibluCI9eisAODnva8WGIXz4e+e+lcHgTERG14vRMKPpoT0CffgZtjfrRf5GBejyJvv5KwT3O4RNo/Zk0JGW6IeylGfDk6YSuqy1Gzu6W42nl2N9qK3uU/kIuUrauVcbdRSIm6SDya61dhzGNJ5LjgvUXsrE9zjRWb/Hqzbe6FpqXL1yxHtuzii3GD1Yga6PlmKTbz4uK00hrfi8vRyFmZy5KrEYBPfI/kCdc5mFpsIdtXSt791HumLgHr8HGyDmYYLWbpRWXs5G0uxDTF83DBKtXwCVvhL+5FhEBw1snx52g6a3caUd1RRngMhojrb1/Ve+VyD7y35exZBuyxP3ze2JNMejWvBbWYoBJ+cn9SGyOH2L/T9itQ0mZaYxii/kImifxulyDU3s3Y/nLYv3mORCsTvClR1Gu+bwBkVi1NV3EOfmYMk4yMVvcL0Tqq/Jxs+czj09WVH9j9p5lnN2diyKLntZWJ82qO470vcXwWbAMwc0nAPXFyNq53vT/yP//o+PIfOv2a2vHz0HY2EKkZxcal1tQYv6t+R5ik/GxiMunjJ+F+Wub1X+VWbyV8TpXxBDJvFy+jzaOHcbPK+H2sWN5nEjuL1j8852ccM1Sy9cwzfeQZtGV3XQMizXVm1xHznVh5XO4/V7E9pCVghjj8VG87037lW3BvFzWoZX/hxxAe/HiNsu206qtqchpa/u3FquI7K3/43AOd0FTagYqrfXjbjiDqrdPwCk8FC4DlDJLDbWo+jQRF16Yi++M46R/he9eWIviT8/jprKKuRv/ykTx2rBb636//gNUXuuoE7n9OHbKqC8wdt12nx+BEKtXEqlzRAPpvzcg9YwG03691DieNuJxV5w/nIz/shgjK09c/C4hFXk3xyNsiWk8bbDr10iM342jyjqWDBc/Q9I7BRj1TAQil4iErF8xPt6ajMxvspG4JRfOM0V5ZATCHtHjyJ7N2J6nbiyxfN6EhP3A9AXGsb0RgUNQrktF3HvHW3Wr1J+RXbfdEP7SDLh3cu+pLjiO8/DA1HFd6MrcKOr4vXSUByxF2PhuHHJw7jTyoMEU73b6fteVIT9zB5KytQheMgtjlOJb7tR7JVIMfULGkjnwEffdA01j+uXyhLYO2IJMMmOSPkPp4CcQLtdfNg8+VRmI+9MBlCjrtGTAyT1J+MdDEXj7z9uxKyaozWEX5/etR5xIGLVByrwBLz6FkVcvosTYGvBEoCx71lvcd0PgAvlexW2uHx6QD7fj6sk0JPy/xRhpjHkiZs3wRElOKhKS2phjwYzhm+M40jcIoY8pcahOJOpxG5Dxf0GIekOOf16L0Nr9SPsGGOnZfFZsIHzGD4f+2+9aNsDFMTQ1fgNSvtJj4twI4/tf9AtXHJXzKpxU1rFUcxypf2qOt+EI8byCI+9tRqpOlG/cjXK/527F4SJ57PjQImkXx45o8XlVj3gai2R9LQmFj16H1E3JdrpCLru3rzW+RumAANM2IW7hP9fg6uXbSUp59jasMh7DvDHvRWWdIA9U5IljR5zl/BGSAUUiXu44NxyhLy7Fsuf84HzhIDb992GcykpGwpdahIjyKHlsq5P/TwqOVCt/Sg6h/Xhh0tx2OonmbTMM02/qkJKwHmmtzm+pj1VEXTV49kL00n+O2i8qlZLb6o9m4GbpCPSb6Ws98WwoQ1lsGCpf/xxNjy3EwKQEuCatRL+HylD/+nKUJJ1okUTfPJGM0hcSUX/DH9o/yXWj0G/Il6haJMqUdbqb4ybQsnGflIwct3lY+gu1l/6oI86Tl2LrRrOxv/PXYNFkkTxm6ZDf3LATDbb0ndnQjw3DxhiROPvLdf0RvOA1bH12hGi+WFek0+OpmKUIkev7z0DkK/NE0laItLcOYOSKNQg3vqY/QpYtQ4iLAad0Z9t8LnNFuouYHvMawszesxzXa8jLxTHzM7+XRaKelAv35yJuX7lRS16JFQdG16D5HXaZbJu8+i0amhUBWDbXG92WkspG8c7DMIydh3mPWl5jV66ayduK9diU54pFbyQg3Nfy3dyh90pkxnW43Ie9MFTeH+Zt3J8nTPSGe1/T461UZGPHnkLRYF2J+FVzEGg2tj9qotyKrSnGeY/5IkZ0dNwoQF5WDeAvGsMhyrwBAXMQ9fs1CB4sHx+IkbLMy9N031e+triNc+ugZ0shPv5qCNaax9ln1+APy/yNcyykHW0/6p0/dxwQdTJGOfqXfLEHWRDxdFkQxrjJ8c8emPDs05gg34VZC8F92Gjxr1/B7RzVgPwPdyCr1gvhca+1nEMh7mm4t5rFX/H1WTzwcnO8DUBY9EoEu+iRtTMFRSFrb9VV4PxIEVfEseNLeeLRTC8PzIvdZBy3PU3WlzwWrJgFd0Mhco53PYOuzktBYvYNjJkfhy23tglZxyuxrHk2NrndGBOdNXgrtvkYZlpnS3wYxtSKeP+xZTZTjDx9EGKXzTC+72khS7H2OS/xcaYjMXMEoqLDTK8l/58lM6A1nMY/zqg5gtH9oaN4IShtJ0PASvzhldvxKiwmDmFeNcj8WGcRs9TGKiI7eDAEA/6jDxr2ZuJqi5nCynBlz+fAvIUYLEf8WVF74I+4nuWCvjvT8FBkKNwf84fbYyEY9sZuuL/ui6bU3+NKc3em+hOoiMtA089Xwv3NKHj+XK77JDwj34bHojFoUlbrbg6aQN9u3EdFBnX6SiK1xU00CibBtUV9ajHaeBWzFOXNJ6X+pRONLi2C57aue9fpQZiu3G/F3x9TzDMxt3GYKBPZB3+BYPMErpcXfEXjF98Xt3EFyYL/0xYJsRY+4+VVoWpcbT4ayaRySxrKxYErKrhzByP9hYNIiEtD0dgwxP7G9mSyPKt53GIYfLorI63QYXvcNuT0Dmpj31CumhnPjosD+ODTSHo1EpsyW3aZvyPvlaiLyk/qRHLmjXmzLfdLEQNmzsBIZcnSVN92embc4gp3GVfOnMYp82RS7lNdPOZMm9l639RODRKJqAHHvrXSzfqWGpRcNGDkT5rP4tUg/2QZ3J8IuJVQG2k0ogaGY2h7oa6xEEdz9SKJfK71CcUHgxDa1ji34QGYNky5L/UV8do4p8wkzHrc/AVNV71RW4oK8/obF4TZoyyCyqhxIuEHin7oaM6GjlTg6BenYfAVSUw7cb7kyGdtbDeC+N/nBWigz9a1+paG6dMntVjffdx44xVB9yeCWsbJ0d6mOSguKV3byQF0HC8M3+SKtpMbZs30a7nd9XLDlJ+KfeWbQhQpRc3UxSoie+iDwc+Ewun0B7h29PZ14Mb8DNz4hwv6hT6OfkpZSxdRs+8MECwS7Edbj/Ub+PRC9NXW4maO6budG7/5HHWl4vleCsVAi2GGzk+FindxZ3TxMH5vYuO+GzXWoOhkNtL3pCIxIRbRr0YhZk/LBl355VLx0w9jrU1s1UvT5tWXMSMsL93+CFq5r7n0b/U3ov0nGl7qvve19fOKxqirbDwVo1xe0LjVW6GTCXCjHvkfbcCqhAPQzHkNb622/WSN7LaVsKfCmLx2+uq3SiW5OxD9eiq+843Axo1t7RvKVTPj2fFZiFiVgI3zh+P8vm1IP2Oq7TvxXonsoaJUxKYHx2GMtZn72oxFIrH8sXK3XR4IfGEWRuqzkbhazvGwH0eKVX5FXbuGY9QIa+9soKkBXlrRzjhH0ahpEPHxVhwqRckFka95DFGWFRVl+E5EOmez1k75pe+AsR7Gq/tGlaXGr8abYJxEsDVjDLZm9AiLbqQiWTfGGi20lj0FxGcgT3hftxgAZ7hciJwDaUjduQ3RMbFYtcI07r3rrqBEbBLuD49udzLH6qviwNDWdiO4eYo6MVxESZVSYOSFkbKzgbm+/Y2v49r/R6blZsq2p7+p5ghG94eO48XVatkgqUB6nNILzOwWvbdYPCa2uRadMNTGKiL76OUTiv4/q0f9R58rF1XqUflJBpr8fgMXObbKqkqRZANOk3ytt697e6D3o+L3vy7iuvilL7kofvqjz2j5oIXefeCk3O1uDphAFyBTJHQGQyFSYywCkDHRa57MxWLiFerY5WxsilyLuJ0HcP6aBu6TZyF8fgQWBVtrYIkGQlsNrJ7m7GdIPSeS8XNpiF5ivs3EItW4yYhyuSwnx2nWWIasN9dhU64bwmI3YV1IVybzqkDeR9molt/ZnBhl9vriZpyACKJcLts4YY5I9E/tiUXc+xWYsHwDtrzo36lE3/0XT2O6CJU5J2VldPN7JbK3vj9qI1Fui4hdKvcP7dg5iE/ajNgXg+D2w2fYHr8Wi8V+0NE45fZ18PrOIvFV7rbmigfcgKLLzVdqh8DdQ6TRVS0H257/Zy6uiqbMrRgt4tmRL4vh8/jkVolln753MpDrkS9i1fKYbUj7qgKGAV4IeTYMiyLnYYqyhj1oxTZBZDuxj8qT+4Z2ToBcLms5NEFQFy+8MXu50gus1c1yvgf1sYrIPjwwZP6ToqG3D1flOZ3iDFz7q9gS//PJdk9Kdp5IlFVMctudHHDXMuuCanGLMI5vap7MJeD2mXZSJf9QOvI1AYjashnrloQh/OkA45XK0RY94ZyNlxsKUCQvRFuq0xvPMPUow2RX/9bbi5z4LFBe8XkwABFy+Ynmyws1OJK0AWnXghAbvxTBlt0NO80VE+ZavrZyM05ABPg8K5fbnyypLec/XI/Er4djUfxrCB9v+wRnGmNru3vfK5Fd9RbbbHExLlr7DvO6G7DLHE69BmJMwDxEJSRhyyJ/aM6kYccXXTl7VIySy8pdc3XFOFcoGuHD3NrpJaOB51A3GL4vVa5Su2HCYx4o+jAFHxdWQF9bgfNZO5D6fz9FoOY4/v5VmSgTyfN7icjQhiFiull8UBov+UXWuhkboO+O4bsVOqRnVWDk83F4O14cs+fPMY0/ftiznZMGnWFKfIrOFLYYkmLJVZ6FuHwW59vYQCpKRctRfjPBIKWAHIwHRj0kfp0swPk2TpaVXDwrflrpiddOvDC1na6gz4+VXmCtbu3M90B0h/SZGop+nhdx89AJVB76AI2eoXAJah7Ib81g9PIBmo6fsR53G8rQcAJwGj/GGOd7G7uenkC9TNAt1de2+TVa9uaACbRZF1SLm88w2ThonsxluJ3PltzvalByyQAM8oCneetNuXJhTjvWD2NQgYOHTrfaWYoO7scR5X6P4Tq81bZiunljpLEL+XD4yOXhSuPy3GHs/sYVIf/PPIzpau5spIH7OMvXVm7GCYiAoV5y2YaDZ3Uu0jNrMOXX4ZhmY3fr8i8OIE802QMnyrFW3fheiTrh9lXWto3xniS2WB0O5lgktI16HPnkQNe/8sXiSC4nRpFjW0uqLLtyi6RYdU5tQM6XOugtnrvksIydAxE4uf0xj0OnPoGhhdk4cklZnrkW634JHNwSi+XRG5Hy3SSsnDsHIQv8ULpnvSjbjIyGpxFrOSfCoHGYOkzs/58dxinLQH7hANJ1yn17qigzjvEc6tHyrKz+a52IQfbghcCnPIBv9iG9nQm8jHWIAqR/XNC6wXc5G+m5Brg+Pqn1NxOQg9DCx98PmtrDSDtk5QST2EZS9pdBM94fPrIN0ayDeKH1nQSfNtpORD1Gb18MWv4omlL/iKsZtei1IASD271aPALOoSOArF2oPNF69smaA7tQpx+Mvj8zTpaB/mK/6YUy3PxI1+rrra7u26Vq6KY9sHMH2clAkUSKhkdxBpLfE42zk6dxSncYSTHJOGc57Z5bAOYFD4Q+Nxm/27ofOXLdkyKReysWybXj7NoV724ovyBn/x6CPtXy/7J2K7bPlS17uFiIfLjB+WahlfcpbwUoV67OlWcnI2HnfmTplMd02UgTn1nMnmI8ELwUoWNN6xHdXUMwVOSQhpz9IokT22nWYRxpIznVTA5F2FgNzu+NR9ytuCUatxtj8ZnWv81JxNQpQGrkeiR+lKvsSzpk7kwTiZ4HZk03S3If9BCJlkiK94sEWKyXlanrIHF3w8iqfVi1MV2JneJ5t8ci7qMyuAYtQmhHcwZ5iPjrfwXp/9/Dpq6hvURj/9m1pq+5+XMiNi4xDeFwn74UW26VBWFkq5OBHgieHwTX2lwkxm0TSaN8L6eR81EyorffgM9kZTV7esgbUzQwfu/0rdfbuwGv5OptS1YrspHwciSizb5mcejTKxE+9gayEtchbreyTYg6ztqbjO3NJ1o8ZmDNfC/ola+yao6Jxv9dThg5Kgyxczv6IOh+5vpYGMJ8RWzZtx6LE1KQekDEARFb0nebtpHzLpOw6D/9zS7UqIgXrgGIENudQbSdzLc74/Pu3IzEbNVn4Yi6lfYXcjKvSjRV+0MbbG3Co5Zcn02A9ue1qFsShu+TMlD+lQ4VX2Xi0usLUP7GefR+/U14Pqys/GAIBi4ajKYPYlGydhd+MFu38sqjuFODiphAk90MnRmFqBleuHo0DduTkpGUUYBRC2MQ7me5OWvgM3894l8MwNDSz5Ai133vMIpGykm6JnX4Hag9XcUP8op7AdLF/5Vo9ZarbnbwO8A0oVuFaJBae5/yth+nrpnWfWCsP4bW/BPp7ymP7UxHnsEbYVFx2DKfX1VFPYUbgl+KwLQhxfh4p4gtHxdDY33qT0GsG70BUb/yhuFkuilu7T0O/GINokKGd/FAPAS+j7miNDvNtL9sT0NWrWg0J6zFbPNZqN2CsHSRSFovHhSvvwPpFzUddEceiOkvrkfU5FLRwJb7YgrSzw0RZa/hDy+o2Q+1mPLCSgRXpSPmTRF32/q6qWbt9IfTjAvDH2LDEfhj8V5kXNiegszi4QhfF4apto8GaVvfSVggnnuatvjW6+XUzUBs5Az7DbnqJbeJOOM2AWWbkJ9dZrErHh19O91xD16Lra/IsdffIM34OSQj9X8N8HluDbZG2z5hJN0n5Ha0epOxnTOm9jRyPkwVx0yxHZ2shucvI7AxbimmtehIoS5eyO1uY+Qs+BiO39rukvZ+hvP9/DFrosV4OaK7pc/jcA53gVP4b+CuplHf2wOem3dj0LrHgf/diZrIWFRHJqOu7lFoU3ZjxGwPs4S1D4YsfQdD3ghBrwv7UCvXfWMfGh5eiR8vf/yOJbZOTYJy/646/u05DPPgV7x31aWyckx6pPOXAln/RGQvtsShHheDLh9GXEw6NC9sRmxQd2SDd5leJKHbNyPtnCsm/HIWZk3xxshBzel3DUrOnEXOFxnQzE40fh9zZ516bxkSdUFY9+cwtDn5KlE3YVuIHF1H+8B3/jMxWndIWSJr2qsjniMlIiKyUH3uNIqgxZgR92HyLGmHIyQqCW/FhGLsZR1S3ozH8tVRplv0Zuw4dBraqREIHqWs3xmNhThzUvwe59XFbvBEREQ9DxNoIiIic/oCZHxUAAwKwFRbEsh7iOtwf8xesgZb/pSEXe9sN93+nIgtsSsRFuyHoTaMzSj/Yh+yajWY4D+OQzuIiOi+wwSaiIgcVAHS4pKR8mHzZFGnkXMgBXHR20QCOByzXw7FGB4l21Sek4xNO9PwsTKh1+2JBQuhnRyOcPOvvSIiIrpPsGlAREQOagjG+gJFugy8KyfukRNBHRLJ32NhWPfGa5jndafm87w3PfATP7jWnMZnH5jqzjix4DUPhCxZjz8s8wdHkhIR0f2Ik4jdZzhxBhHdbffFJGJEdM9iW4gcHScR6zpOIkZERERERETURUygiYiIiIiIiFRgAk1ERERERESkAhNoIiIiIiIiIhV6TALt5OSk3KOusLUeWf9EZC+2xBPGICKyF7aFyNF1tC079dGgqa5OWSJLsm5kHbWlxyTQzv37oaGhQVkiW8j6k/VoC9Y/EdmDrXGIMYiI7IFtIXJ0avaBfo+Mg/6rr5UlsiTrRtZRW3pMAu022BXV164rS2QLWX+yHm3B+icie7A1DjEGEZE9sC1Ejk7NPjBw7jOoeud9XoW2QtaJrBtZR23pMQn0INcBGOCsReXVGp796yRZX7LeZP3JerQF65+IuqKrcYgxiIi6gm0hcnSd2Qdcfvkk+k+ZiEuLo3A9J4+JtCDrQNaFrBNZN7KO2uLUJCj3e4Sq6muoqKzG9Rs30cPeWo8kxzjIbhryTJOtBwxzrH8i6ix7xiHGICLqLLaFyNHZug/Ufvo5aj78BDe/PYumeoNS6pjkmGfZbVteeW4veZZ6XAJNRERERERE1BPxa6yIiIiIiIiIVGACTURERERERKQCE2giIiIiIiIiFZhAExEREREREanABJqIiIiIiIhIBSbQRERERERERCowgSYiIiIiIiJSgQk0ERERERERkQpMoImIiIiIiIhUYAJNREREREREpAITaCIiIiIiIiIVmEATERERERERqcAEmoiIiIiIiEgFJtBEREREREREKjCBJiIiIiIiIlKBCTQRERERERGRCkygiYiIiIiIiFRgAk1ERERERESkAhNoIiIiIiIiIhWcmgTlfo9QVX0NFZXVuH7jJnrYW+uRnJyc4Ny/H9wGu2KQ6wCl1HasfyLqLHvGIcYgIuostoXI0dm6D9R++jlqPvwEN789i6Z6g1LqmJz6aNDvkXEYOPcZuPzySaXUuh6VQF8qq8C163q4DnBG7969lVLqSENDA6qvXccAZy2GebgppZ3H+iciW9kjDjEGEZGt2BYiR9fZfeDKWztx49hJDHrpBWgfmwynvn2VRxxTU10d9F99jap33kf/KRMxZNUS5ZHWekwXbnm2TwaswQ8MZMDqJFlfst5k/cl6tAXrn4i6oqtxiDGIiLqCbSFydJ3ZB+SVZ5k8D/tLIpwDpzt88izJOpB1IetE1o2so7b0mARadpWRZ/vIdrL+ZD3agvVPRPZgaxxiDCIie2BbiBydmn1AdtuWV56ZOLcm60TWjayjtvSYBFqOM+HZvq6R9Sfr0RasfyKyB1vjEGMQEdkD20Lk6NTsA3LMs+y2TdbJupF11JYek0Bzkgb7sLUeWf9EZC+2xBPGICKyF7aFyNF1tC3LCcN49bltsm7am1SNX2NFREREREREpAITaCIiIiIiIiIVmEATERERERERqcAEmoiIiIiIiEgFJtBEREREREREKjCBJiIiIiIiIlKBCTQRERERERGRCkygiYiIiIiIiFRgAk1ERERERESkAhNoIiIiIiIiIhWYQBMRERERERGpwASaiIiIiIiI7mEn8G//mfgu6YSy3H2YQNM9pzxrMxa+tBlZFUoBEVFnnUm7/+JI1WmkbYrC4peWYeGmbFQrxfey8x/FYvGKbcgx+5xMx4A05CvLXXI/bgdERHfC5Qx8LxNW/7m4pCYgX83EBeP6q1F6WSm7RzlwAl2BrI2ikSEbGpa39wuUdYiIiO4Mw+UCZO1NRtxvI28fj1asRfTWFHysK4O+UVnRmsZCpG1MRmaFN+YtWYmIx9yUB+5lBhjqlLtE94wCpHbUlqzIRoJYJ/WMskx0L9PW4+YnX6JeWWxL1Ue70KDcv9c5cAJdg/LLgGbiHERFrmx5e8JTWYeIiKibNdbg2HuxWB6XipN9JyE8ehPefjPRdNsUhaXTh+BcxgasitmBnDLlbyz9S4esKg2CX1yKEH8/BAb5wVV56N6lgc/zCfjL/6xB4P1wPoCI6D7kNHIw8NcMVF5VCqyp/xK1uyrR62e+SsG9zYETaAMMtcBI359iwkS/lrfhA5V1iIiIulFjBbK2vIbtFychaksCop4NwBgPLbQuzTcPjAmYg6iEJMTP0CM1fgPSCw3KH9+mr6oQR7XhGPqgUkBERHQHOD0Tij7aE9Cnn0FbHaX0X2SgHk+ir79ScI9z3AS6USTQyl0iIqI7z4D8vZuRWhGAqOh58HFRitswNHgNNs7V4OM/pyPfomvzdb1euUdERHQH9X8czuEuaErNQKW1ftwNZ1D19gk4hYfCZYBSZqmhFlWfJuLCC3PxnXGc9K/w3QtrUfzpedxUVjF341+ZKF4bdmvd79d/gMprHXUitx/HTaArK1Aifo30ZL8wu6otRs7ubYherYzhW7EWm/aeRrXlKamq00hP2oBVK0zj/BavXo9Ey76JjRU49VEyYpTnWrx6M1J0ZTzxQUTtKj+5H4kJa02Tab0UieVxKci60HGCeWtyqsYanNq7TYlPkYjZmYsSGcMsypdvSsepKtPfmtNfyEXK1lgsf1mJb7/dhrRvapRHzZRlIzULCHk5DD5apUxOBLZVee8r1mN7Xi7SVt8eK+ke/BxCDNk4+LXy/yhjKaP3FIqFQqS+anrNBLNZsUzv53Z9rNqaihxr9SH/vxYxV8TljyzjtzJ/iBzfaflec5UYbl7+chQSrB0DBDWfU1cmDLtntgMiIz2KclOx6VVlIkDjvpqO/FrlYYWq/bl5crzLclvdbNoGN2ajXHmYyN4Gz16IXvrPUftFpVJyW/3RDNwsHYF+M32tJ54NZSiLDUPl65+j6bGFGJiUANeklej3UBnqX1+OkqQTLZLomyeSUfpCIupv+EP7J7luFPoN+RJVi0SZsk53c+Au3CZZiaYDmzzIR7fVqCCVRMPqvzeIhp4G03691DiePOJxV5w/nIz/2ltwO/Gt1iExJhmZ1eOMk91ERUYgbLIW5y+ZzRlr7NYYj8RPy+AWFGZ8rshfe+PqhxuwKbOtQYBE5PBEwzE66TNUj3gai+ScFktC4aPXIXVTssqZlqtx9INEpMMfi+RkXDM8UK5LRcIHOhz7IAHvXvHDfBm3XgyA+4XDSNyYjvPmyaFIaBMTRPKl+SnClsn4Fo7AgYXIfCsBqWdbnv4rOfp3lPjOwSwvpUAmwzE7kD9sAeLl+Of4BRilS0dmrdftrtm9vOA7ETh1VibMwgA/zJOx1jhI2A2BC+RrrsS88aYR0HpRH79LSMVJBCBc1kdkGKbf1CElYT3SlKcwUrqSJ35ajTGzw43PsSjEE6WfJuOVJF3rGb1rjiP1T/uB6QsQKf7HEM8rOPLeZqTqRPnG3Sj3e06Uy/c1BEXyGPCh+YsJXf6cOnAPbQdE0vl96xH3fgG0os0j952oF5/CyKsXUWKWOajen40MOLknCf94KAJv/3k7dsUEwV15hMjuHgzBgP/og4a9mbjaYqawMlzZ8zkwbyEGD1eKLNQe+COuZ7mg7840PBQZCvfH/OH2WAiGvbEb7q/7oin197jSfBa1/gQq4jLQ9POVcH8zCp4/l+s+Cc/It+GxaAyalNW6m+Mm0JrRCDUGH9MtYrYftN/nGoNQ6hkm0bZynrwUWzeKxluAaTx54Pw1WDRZNEWydMhXGhfVx7NxyjBcJM/zEGgcd+6P4AVr8fbz3qYVhPIvUpB6rj+CI2OMYwKNY9PlOMCNazAd/HyIqA29PDAvdhPiFwRhmowb/jMQuWIW3A2FyDmuJnM6jvwHliH+eVPcCXx+LaKCtNBnp2D7pacRu2yG6XkDwhD1gohZVbk4ekH5UyMtpi7bgC2r5ijxTTR0o8MxBTXIyjOflbcG+d9WYOR4b2WyLwOO7U9H0TiRvM73w1A5/tnNCyGzA8QzCr2NKxl5jhAZd2mF6WpSXzf4iNfxGSbn7hiIkb7yNcXygxqgrgDpO7NhCFiJP7xy+/2ExcQhzKsGmR/rbkVTU8wdjrD41xAR7G98jmkhSxG/PACab9Jw0LJx/vVZPPDyawgzxnrxnNErEeyiR9bOFBSFrEVkiOk5AudHItxXxP0vj+O88qdGXf6cOnDPbAdEUgHysmoAf5E8K/uOsc3z+zUIHqys0on92aQY5z3mY5k/e1rSndAHg58JhdPpD3Dt6O3rwI35GbjxDxf0C30c/ZSyli6iZt8ZIFgk2I+2Hsc08OmF6Kutxc0c03c7N37zOepKxfO9FIqBZsdFyfmpUPEu7gzHTaBdh5sClHILfDoC8VtEoBokDm47D7Y8k0wquYkG1yS4ttiqtBjtLS+vlKJc6dWhHegGDcpw9KTFleRbf1eBY1+K1prvHIT6NvdrVPTyQvDMNk5hERGNC8LsURZxY9Q4TBC/in64Ylpu13AE+nso9yUNxozzM96bEhwAd7P45jrWDyNFk7XkB7Nmq5s/QqZaTESp9YKvMQwqSa9RKUpEwjXSo7lxW4gzRw2YEiBiqFJi1FcLZ4zA0EHKcicYvslFVq0bZs30MyXhzXq5YcpPRRz9phBFxoIyHMkSMVckmcEWk5BpH5mEqeJ/PP+9RdI5PADThin3pb7ifzROrjoJsx43b7APhM948Vq1pagw74ra5c+pA/fMdkAkucJd7ntnTuOU+X4itzNlW1O/P9821bjBEd0ZvXxC0f9n9aj/6HPlZE49Kj/JQJPfb+DiYyywolIk2YDTJN+W23Wz3h7o/aj4/a+LuC5+6Usuip/+6DNaPmihdx84KXe7m9khgKD1Rtjz/uJAb3kmmVRrrEHRyWyk70lFYkIsol+NQoxxbN5tmkdDsWiqK4r2rjeNa84qQHmLHm1XUF4MuD882vrXsPTSKHeIiFozXC5EzoE0pO7chuiYWKxasQ1ZymMdG42RFkmkRms6rDtrLWKPiEWyRG85gVd1MU5l7Ufq7mTEidePXh2P1FbdKwUR9zTNZ9CrSlFkcMMwz5avYSgtRbmL6XWalV4shOYhzw67Y16tlklvBdLjlKFKZrfovSLI4iJKjHlxNa5eFr90O5RxlWa3JcnIEQ+dL7VIOkePsHh9DUzVpIW2r7HgNmPM1uO6xUwwXfucOnbPbAdE8EDgC7MwUp+NxNWRiEnajyPFLcfLq9+fmw3H0B8rd4nuCA8Mmf8kkLUPV+UmWZyBa38VsfM/n7Tz1yqKRNni6vOdxgTagukAqYfB2pRv1L7L2dgUuRZxOw/g/DUN3CfPQvj8CCwKtrhi3MsN05Yl4O2NKxHqCxzdJxo3/5/YVl3ntX1/pNwjIlJDj/w9sVgesw1pX1XAMMALIc+GYVHkPExR1uhu5dnbsPi3G5B0oBDXNW6Y+kwYwl8Mh2UYlFecHhAJWtFlpZHs6oahonHc3FPHpAbHdMeNx6VbZ+b1x/EPnRbBU28PeWmfN2Yvvz1cqeVtDiaYzYjqKrsjW11P3J7wVNayh+7+nO6l7YDuPxpoZE9UQztj3S+XtRzSIGjHzkF80mbEvhgEtx8+w/b4tVicmI3yFj0i1e/PxvfBVj7dYX2mhqKf50XcPHQClYc+QKNnKFyCmschWDMYvXyApuNnROS2oqEMDScAp/Fj4CwWe2vlznUC9TJBt1Rf2+bXaNkbdy0L1VWl4qcbHrDvqRKHkH8oHfmaAERt2Yx1S0Rj4WnT2LHRbQy/0Tzoh9lL1uLtLa9h9vAKZCVlKOOkTQefou+Lrc64bbjBWUyJyIoKHdKzKjDy+Ti8Hb8SEfPnINjfDxMe9jQeeLtdYwEy9xZAE7ASb/1pDZbND8Ns4xhhLytXi4dg6CgR5/4tjzlCL29MnK5Bzu4UHCnTQ19bhlN7kvDPoUEYefkr5JypgL6iEB8npSA/YClCx5r+rD3OxhPCV9Dnx7eHK7W8ecPdeLXYFHOrDa7G8dRW1x1u0R25K7r7c7qntgO6/3hg1EPi18mCNocDllw8K376YewI0/ItvQZiTMA84/e+b1nkD82ZNOz4wnRZWf3+THQX9fbFoOWPoin1j7iaUYteC0IwuN2rxSPgHCp2hKxdqDxhMeW8UHNgF+r0g9H3Z8YxQug/3l8kr2W4+ZGu1ddbXd23y2re0B2YQJvTFyDjowJg2BOYYj62i1SoQcklsdkO8oDnrUslQmMZjnxpcZrI8oDiMhyBcvyOoQLVxtNPXpg4VQPoDiNLdis0V6tDxict+igREZlUlBnHAA69Na7YRP+1DnnK/W5VLbthA+4/8Wg5luvSP5HT6my5BhOm+gO5uThmjHsaTHnxNUSMvYh3Y6OwfF0iDvafj0XPzkLYrzTISozF8rjtODNqKX7/G2/rY8UsaH0nwQcVOHjotPUz+7d4Yep08YzWYm536O7P6Z7aDuj+o4WPvx80tYeRdsjKt4ZczkbK/jJoRCLQ4rvfLdpGcibiqeJ3SZXpooH6/Zno7tL+Qk7mVYmman9ogy3PErXm+mwCtD+vRd2SMHyflIHyr3So+CoTl15fgPI3zqP362/C82Fl5QdDMHDRYDR9EIuStbvwg9m6lVceFUfSO8NhE+jynGRs2nkQOSdP45S4HclKRVz0NmTVeiF8xQwMVdYjtQbCZ6KHcbxD8nvZOCLrVTTGkmKScc5i3vryLzZj+aZUZOlMdX8qNx3JHxVD4x+ACcrBxCdkHsZoCpEWtwEpWbrbn1FsNpz92QeOiKx4yBtTxNFTfhd9eq4pvuTs3YBXcvUYo6zSrQaNw9RhQNGHO27HrcwdiE76Dm5Wwpbm0acR+qAO7+5VGsS9PBC4ZD3+8s527PqfzVj3rJdoimsx5tnXbpc972cxUWM7XAMQMd8LhtxkrEowi7m6bKTv3IzE7NsnI8fMXorgQTLmxiLxo1zTerL+DqQiMTbdpu9hbpO9Pyf59V8vRyK6+esS77HtgO4/ro+FIcxXY/xqqsUJKUg9IPYpud/tTkZ0XBrOu0zCov/0NxsXWoDUSPm96837ng6ZO9OQBw/Mmq5MBNaJ/ZnorurzOJzDXeAU/hu4P6CUtae3Bzw378agdY8D/7sTNZGxqI5MRl3do9Cm7MaI2R5mCWsfDFn6Doa8EYJeF/ahVq77xj40PLwSP17++B1LbB02gXZ+0BMoPIzUpGQkitu7HxdA+1g44resbTULKakzdGYUomZ44erRNGwXdZqUUYBRC2MQ7tfyfNADD03CGMM3SNtpqvukD8/Cc/YabH1p0u2z9W5BiN24ErN9DTi6L0WstwN7jgPBq1ciZMSdOr9ERPeUvpOwYF0YpmmLkfmeiC/bU5BTNwOxkXfqpKgHQmSMGl2NvD2muJVxbgQiYsMw0VrYEgnz7BVhGKrbgbj3dBZjHa3o6HEr3IPXYmPkLPgYjt+OuXs/w/l+/pg10ewKrdYb4XGvIWK6/N5mkTTLY6Oov4+/rsbI0ACMVFazi+7+nO617YDuP73cRHtlE+JfDMCY2tPI+VDsUyIhzjxZDc9fRmBj3FJMa9FBYgh8H3NFaXaasu+lIatWJNkJazHbrEek6v2Z6E54MBQP6Q7hIZHgWhq86EN4LfJtlWi6zH4To3VvwtMy1+o9GIPnvYqH/vo38fghcfsbvDZHwdNvsJVk1QUP/DIKo5rX/ds7GBHuD+fej+IncjlSTtvdvZyaBOX+XXX823MY5sHRQV11qawckx5RMTjOAuufiOzFljjk0DGo6jhSNokk75oHAufOQOAj8nuglcduXkFRwdc4eLAQE1evQTDbyEQdYluIHF1H+8B3/jONySe1rb06ctgr0ERERD3CoEmI2JiILSsCoD1zGDv+uA7LV0eZbnFJSMm7grGznsPU9iYyJSIiojuCCTQREdHd1ksDd98ghEW+hi1vJmGXHPOsjHve8koEZgcMVz/2mYiIiLoND8dEREREREREKjCBJiIiIiIiIlKBCTQRERERERGRCkygiYiIiIiIiFRgAk1ERERERESkAhNoIiIiIiIiIhWYQBMRERERERGp0GMSaCcnJ+UedYWt9cj6JyJ7sSWeMAYRkb2wLUSOrqNt2amPBk11dcoSWZJ1I+uoLT0mgXbu3w8NDQ3KEtlC1p+sR1uw/onIHmyNQ4xBRGQPbAuRo1OzD/R7ZBz0X32tLJElWTeyjtrSYxJot8GuqL52XVkiW8j6k/VoC9Y/EdmDrXGIMYiI7IFtIXJ0avaBgXOfQdU77/MqtBWyTmTdyDpqS49JoAe5DsAAZy0qr9bw7F8nyfqS9SbrT9ajLVj/RNQVXY1DjEFE1BVsC5Gj68w+4PLLJ9F/ykRcWhyF6zl5TKQFWQeyLmSdyLqRddQWpyZBud8jVFVfQ0VlNa7fuIke9tZ6JDnGQXbTkGeabD1gmGP9E1Fn2TMOMQYRUWexLUSOztZ9oPbTz1Hz4Se4+e1ZNNUblFLHJMc8y27b8spze8mz1OMSaCIiIiIiIqKeiF9jRURERERERKQCE2giIiIiIiIiFZhAExEREREREanABJqIiIiIiIioQ8D/H1MQrNbJkM9LAAAAAElFTkSuQmCC;" vertex="1" parent="1">
                    <mxGeometry x="40" y="1390.5" width="544.14" height="189" as="geometry"/>
                </mxCell>
            </root>
        </mxGraphModel>
    </diagram>
</mxfile>